<svg xmlns="http://www.w3.org/2000/svg" xmlns:xlink="http://www.w3.org/1999/xlink" contentStyleType="text/css" data-diagram-type="ACTIVITY" height="562px" preserveAspectRatio="none" style="width:356px;height:562px;background:#FFFFFF;" version="1.1" viewBox="0 0 356 562" width="356px" zoomAndPan="magnify"><defs/><g><ellipse cx="177.2275" cy="20" fill="#222222" rx="10" ry="10" style="stroke:#222222;stroke-width:1;"/><line style="stroke:#181818;stroke-width:1.5;" x1="39.0146" x2="300.8994" y1="50" y2="50"/><polygon fill="#F1F1F1" points="20,70,68.0293,70,58.0293,86.9844,68.0293,103.9688,20,103.9688" style="stroke:#181818;stroke-width:0.5;"/><text fill="#000000" font-family="sans-serif" font-size="12" lengthAdjust="spacing" textLength="18.0293" x="30" y="91.1387">aoi</text><polygon fill="#F1F1F1" points="96.0293,70,154.8984,70,144.8984,86.9844,154.8984,103.9688,96.0293,103.9688" style="stroke:#181818;stroke-width:0.5;"/><text fill="#000000" font-family="sans-serif" font-size="12" lengthAdjust="spacing" textLength="28.8691" x="106.0293" y="91.1387">epsg</text><polygon fill="#F1F1F1" points="182.8984,70,249.3438,70,239.3438,86.9844,249.3438,103.9688,182.8984,103.9688" style="stroke:#181818;stroke-width:0.5;"/><text fill="#000000" font-family="sans-serif" font-size="12" lengthAdjust="spacing" textLength="36.4453" x="192.8984" y="91.1387">bands</text><polygon fill="#F1F1F1" points="277.3438,70,334.4551,70,324.4551,86.9844,334.4551,103.9688,277.3438,103.9688" style="stroke:#181818;stroke-width:0.5;"/><text fill="#000000" font-family="sans-serif" font-size="12" lengthAdjust="spacing" textLength="27.1113" x="287.3438" y="91.1387">item</text><line style="stroke:#181818;stroke-width:1.5;" x1="39.0146" x2="300.8994" y1="123.9688" y2="123.9688"/><rect fill="#F1F1F1" height="47.9375" rx="12.5" ry="12.5" style="stroke:#181818;stroke-width:0.5;" width="166.3789" x="94.0381" y="187.9688"/><text fill="#000000" font-family="sans-serif" font-size="12" lengthAdjust="spacing" textLength="60.3047" x="104.0381" y="209.1074">step: crop</text><text fill="#000000" font-family="sans-serif" font-size="12" lengthAdjust="spacing" textLength="146.3789" x="104.0381" y="223.0762">CommandLineTool: crop</text><polygon fill="#F1F1F1" points="177.2275,143.9688,189.2275,155.9688,177.2275,167.9688,165.2275,155.9688,177.2275,143.9688" style="stroke:#181818;stroke-width:0.5;"/><polygon fill="#F1F1F1" points="117.3586,255.9063,237.0964,255.9063,249.0964,267.9063,237.0964,279.9063,117.3586,279.9063,105.3586,267.9063,117.3586,255.9063" style="stroke:#181818;stroke-width:0.5;"/><text fill="#000000" font-family="sans-serif" font-size="11" lengthAdjust="spacing" textLength="119.7378" x="117.3586" y="271.7144">dotproduct crop/band</text><rect fill="#F1F1F1" height="47.9375" rx="12.5" ry="12.5" style="stroke:#181818;stroke-width:0.5;" width="196.8594" x="78.7979" y="299.9063"/><text fill="#000000" font-family="sans-serif" font-size="12" lengthAdjust="spacing" textLength="167.3906" x="88.7979" y="321.0449">step: normalized_difference</text><text fill="#000000" font-family="sans-serif" font-size="12" lengthAdjust="spacing" textLength="176.8594" x="88.7979" y="335.0137">CommandLineTool: norm_diff</text><rect fill="#F1F1F1" height="47.9375" rx="12.5" ry="12.5" style="stroke:#181818;stroke-width:0.5;" width="165.793" x="94.3311" y="367.8438"/><text fill="#000000" font-family="sans-serif" font-size="12" lengthAdjust="spacing" textLength="59.7188" x="104.3311" y="388.9824">step: otsu</text><text fill="#000000" font-family="sans-serif" font-size="12" lengthAdjust="spacing" textLength="145.793" x="104.3311" y="402.9512">CommandLineTool: otsu</text><line style="stroke:#181818;stroke-width:1.5;" x1="129.042" x2="265.8564" y1="435.7813" y2="435.7813"/><polygon fill="#F1F1F1" points="54.4131,455.7813,203.6709,455.7813,213.6709,472.7656,203.6709,489.75,54.4131,489.75" style="stroke:#181818;stroke-width:0.5;"/><text fill="#000000" font-family="sans-serif" font-size="12" lengthAdjust="spacing" textLength="129.2578" x="64.4131" y="476.9199">detected_water_body</text><polygon fill="#F1F1F1" points="241.6709,455.7813,290.042,455.7813,300.042,472.7656,290.042,489.75,241.6709,489.75" style="stroke:#181818;stroke-width:0.5;"/><text fill="#000000" font-family="sans-serif" font-size="12" lengthAdjust="spacing" textLength="28.3711" x="251.6709" y="476.9199">ndwi</text><line style="stroke:#181818;stroke-width:1.5;" x1="129.042" x2="265.8564" y1="509.75" y2="509.75"/><ellipse cx="177.2275" cy="540.75" fill="none" rx="11" ry="11" style="stroke:#222222;stroke-width:1;"/><ellipse cx="177.2275" cy="540.75" fill="#222222" rx="6" ry="6" style="stroke:#222222;stroke-width:1;"/><line style="stroke:#181818;stroke-width:1;" x1="39.0146" x2="39.0146" y1="51.5" y2="70"/><polygon fill="#181818" points="35.0146,60,39.0146,70,43.0146,60,39.0146,64" style="stroke:#181818;stroke-width:1;"/><line style="stroke:#181818;stroke-width:1;" x1="120.4639" x2="120.4639" y1="51.5" y2="70"/><polygon fill="#181818" points="116.4639,60,120.4639,70,124.4639,60,120.4639,64" style="stroke:#181818;stroke-width:1;"/><line style="stroke:#181818;stroke-width:1;" x1="211.1211" x2="211.1211" y1="51.5" y2="70"/><polygon fill="#181818" points="207.1211,60,211.1211,70,215.1211,60,211.1211,64" style="stroke:#181818;stroke-width:1;"/><line style="stroke:#181818;stroke-width:1;" x1="300.8994" x2="300.8994" y1="51.5" y2="70"/><polygon fill="#181818" points="296.8994,60,300.8994,70,304.8994,60,300.8994,64" style="stroke:#181818;stroke-width:1;"/><line style="stroke:#181818;stroke-width:1;" x1="39.0146" x2="39.0146" y1="103.9688" y2="123.9688"/><polygon fill="#181818" points="35.0146,113.9688,39.0146,123.9688,43.0146,113.9688,39.0146,117.9688" style="stroke:#181818;stroke-width:1;"/><line style="stroke:#181818;stroke-width:1;" x1="120.4639" x2="120.4639" y1="103.9688" y2="123.9688"/><polygon fill="#181818" points="116.4639,113.9688,120.4639,123.9688,124.4639,113.9688,120.4639,117.9688" style="stroke:#181818;stroke-width:1;"/><line style="stroke:#181818;stroke-width:1;" x1="211.1211" x2="211.1211" y1="103.9688" y2="123.9688"/><polygon fill="#181818" points="207.1211,113.9688,211.1211,123.9688,215.1211,113.9688,211.1211,117.9688" style="stroke:#181818;stroke-width:1;"/><line style="stroke:#181818;stroke-width:1;" x1="300.8994" x2="300.8994" y1="103.9688" y2="123.9688"/><polygon fill="#181818" points="296.8994,113.9688,300.8994,123.9688,304.8994,113.9688,300.8994,117.9688" style="stroke:#181818;stroke-width:1;"/><line style="stroke:#181818;stroke-width:1;" x1="177.2275" x2="177.2275" y1="30" y2="50"/><polygon fill="#181818" points="173.2275,40,177.2275,50,181.2275,40,177.2275,44" style="stroke:#181818;stroke-width:1;"/><line style="stroke:#181818;stroke-width:1;" x1="177.2275" x2="177.2275" y1="167.9688" y2="187.9688"/><polygon fill="#181818" points="173.2275,177.9688,177.2275,187.9688,181.2275,177.9688,177.2275,181.9688" style="stroke:#181818;stroke-width:1;"/><line style="stroke:#181818;stroke-width:1;" x1="249.0964" x2="272.417" y1="267.9063" y2="267.9063"/><polygon fill="#181818" points="268.417,221.9375,272.417,211.9375,276.417,221.9375,272.417,217.9375" style="stroke:#181818;stroke-width:1;"/><line style="stroke:#181818;stroke-width:1;" x1="272.417" x2="272.417" y1="155.9688" y2="267.9063"/><line style="stroke:#181818;stroke-width:1;" x1="272.417" x2="189.2275" y1="155.9688" y2="155.9688"/><polygon fill="#181818" points="199.2275,151.9688,189.2275,155.9688,199.2275,159.9688,195.2275,155.9688" style="stroke:#181818;stroke-width:1;"/><line style="stroke:#181818;stroke-width:1;" x1="177.2275" x2="177.2275" y1="235.9063" y2="255.9063"/><polygon fill="#181818" points="173.2275,245.9063,177.2275,255.9063,181.2275,245.9063,177.2275,249.9063" style="stroke:#181818;stroke-width:1;"/><line style="stroke:#181818;stroke-width:1;" x1="177.2275" x2="177.2275" y1="125.4688" y2="143.9688"/><polygon fill="#181818" points="173.2275,133.9688,177.2275,143.9688,181.2275,133.9688,177.2275,137.9688" style="stroke:#181818;stroke-width:1;"/><line style="stroke:#181818;stroke-width:1;" x1="177.2275" x2="177.2275" y1="279.9063" y2="299.9063"/><polygon fill="#181818" points="173.2275,289.9063,177.2275,299.9063,181.2275,289.9063,177.2275,293.9063" style="stroke:#181818;stroke-width:1;"/><line style="stroke:#181818;stroke-width:1;" x1="177.2275" x2="177.2275" y1="347.8438" y2="367.8438"/><polygon fill="#181818" points="173.2275,357.8438,177.2275,367.8438,181.2275,357.8438,177.2275,361.8438" style="stroke:#181818;stroke-width:1;"/><line style="stroke:#181818;stroke-width:1;" x1="129.042" x2="129.042" y1="437.2813" y2="455.7813"/><polygon fill="#181818" points="125.042,445.7813,129.042,455.7813,133.042,445.7813,129.042,449.7813" style="stroke:#181818;stroke-width:1;"/><line style="stroke:#181818;stroke-width:1;" x1="265.8564" x2="265.8564" y1="437.2813" y2="455.7813"/><polygon fill="#181818" points="261.8564,445.7813,265.8564,455.7813,269.8564,445.7813,265.8564,449.7813" style="stroke:#181818;stroke-width:1;"/><line style="stroke:#181818;stroke-width:1;" x1="129.042" x2="129.042" y1="489.75" y2="509.75"/><polygon fill="#181818" points="125.042,499.75,129.042,509.75,133.042,499.75,129.042,503.75" style="stroke:#181818;stroke-width:1;"/><line style="stroke:#181818;stroke-width:1;" x1="265.8564" x2="265.8564" y1="489.75" y2="509.75"/><polygon fill="#181818" points="261.8564,499.75,265.8564,509.75,269.8564,499.75,265.8564,503.75" style="stroke:#181818;stroke-width:1;"/><line style="stroke:#181818;stroke-width:1;" x1="177.2275" x2="177.2275" y1="415.7813" y2="435.7813"/><polygon fill="#181818" points="173.2275,425.7813,177.2275,435.7813,181.2275,425.7813,177.2275,429.7813" style="stroke:#181818;stroke-width:1;"/><line style="stroke:#181818;stroke-width:1;" x1="177.2275" x2="177.2275" y1="511.25" y2="529.75"/><polygon fill="#181818" points="173.2275,519.75,177.2275,529.75,181.2275,519.75,177.2275,523.75" style="stroke:#181818;stroke-width:1;"/><!--SRC=[XP9DRuCm38Rl_0hVkXqA34GrqQgNxRXZxoWGbqNAbn8prFtw9J1jZ6fj3bRaF7bVnt6sIM03huBrZYdeKQDZX1pQ2tIZBEoW97paQLcbUGH9AFJ4bAsXo8lTDY-tHNugdkhYkQxAT5T5AakIm3XAvkMj59H0M5EecH5xE1o4jWCTZ_Cni9u9lO3G-lu-rJBD_NrC4AebXPh3eghlwD0YcrC_LwTDxGd3WpjdRF9Yb0gcRqBZoHWvP_U_x2m2uxkG20_Sa7M63nrDN1RhVPoQyg-BDaunAJwHDroSp-XGTtXj6x49M7ZV5ZRaXskTc5r9hF-B8s4NPg8PmsIufZNy4fjf1hhLSyr7yGTRDpqEYR5V]--></g></svg>