<svg xmlns="http://www.w3.org/2000/svg" xmlns:xlink="http://www.w3.org/1999/xlink" contentStyleType="text/css" data-diagram-type="CLASS" height="1089px" preserveAspectRatio="none" style="width:871px;height:1089px;background:#FFFFFF;" version="1.1" viewBox="0 0 871 1089" width="871px" zoomAndPan="magnify"><defs/><g><!--cluster Water body detection based on NDWI and otsu threshold--><g class="cluster" data-entity="Water body detection based on NDWI and otsu threshold" data-source-line="23" data-uid="ent0002" id="cluster_Water body detection based on NDWI and otsu threshold"><path d="M8.5,6 L461.0752,6 A3.75,3.75 0 0 1 463.5752,8.5 L470.5752,28.2969 L861.5,28.2969 A2.5,2.5 0 0 1 864,30.7969 L864,1079.5 A2.5,2.5 0 0 1 861.5,1082 L8.5,1082 A2.5,2.5 0 0 1 6,1079.5 L6,8.5 A2.5,2.5 0 0 1 8.5,6" fill="none" style="stroke:#000000;stroke-width:1.5;"/><line style="stroke:#000000;stroke-width:1.5;" x1="6" x2="470.5752" y1="28.2969" y2="28.2969"/><text fill="#000000" font-family="sans-serif" font-size="14" font-weight="bold" lengthAdjust="spacing" textLength="451.5752" x="10" y="20.9951">Water body detection based on NDWI and otsu threshold</text></g><!--cluster Steps--><g class="cluster" data-entity="Steps" data-source-line="76" data-uid="ent0006" id="cluster_Steps"><path d="M316.5,344 L362.125,344 A3.75,3.75 0 0 1 364.625,346.5 L371.625,366.2969 L837.5,366.2969 A2.5,2.5 0 0 1 840,368.7969 L840,1055.5 A2.5,2.5 0 0 1 837.5,1058 L316.5,1058 A2.5,2.5 0 0 1 314,1055.5 L314,346.5 A2.5,2.5 0 0 1 316.5,344" fill="none" style="stroke:#000000;stroke-width:1.5;"/><line style="stroke:#000000;stroke-width:1.5;" x1="314" x2="371.625" y1="366.2969" y2="366.2969"/><text fill="#000000" font-family="sans-serif" font-size="14" font-weight="bold" lengthAdjust="spacing" textLength="44.625" x="318" y="358.9951">Steps</text></g><!--cluster Requirements--><g class="cluster" data-entity="Requirements" data-source-line="184" data-uid="ent0017" id="cluster_Requirements"><path d="M32.5,820.5 L144.0371,820.5 A3.75,3.75 0 0 1 146.5371,823 L153.5371,842.7969 L287.5,842.7969 A2.5,2.5 0 0 1 290,845.2969 L290,917 A2.5,2.5 0 0 1 287.5,919.5 L32.5,919.5 A2.5,2.5 0 0 1 30,917 L30,823 A2.5,2.5 0 0 1 32.5,820.5" fill="none" style="stroke:#000000;stroke-width:1.5;"/><line style="stroke:#000000;stroke-width:1.5;" x1="30" x2="153.5371" y1="842.7969" y2="842.7969"/><text fill="#000000" font-family="sans-serif" font-size="14" font-weight="bold" lengthAdjust="spacing" textLength="110.5371" x="34" y="835.4951">Requirements</text></g><!--class Workflow_detect_water_body--><g class="entity" data-entity="Workflow_detect_water_body" data-source-line="27" data-uid="ent0003" id="entity_Workflow_detect_water_body"><rect fill="#F1F1F1" height="508.3125" rx="2.5" ry="2.5" style="stroke:#181818;stroke-width:0.5;" width="257.4717" x="40.5" y="149"/><ellipse cx="92.8354" cy="165" fill="#ADD1B2" rx="11" ry="11" style="stroke:#181818;stroke-width:1;"/><path d="M95.8042,170.6406 Q95.2261,170.9375 94.5854,171.0781 Q93.9448,171.2344 93.2417,171.2344 Q90.7417,171.2344 89.4136,169.5938 Q88.1011,167.9375 88.1011,164.8125 Q88.1011,161.6875 89.4136,160.0313 Q90.7417,158.375 93.2417,158.375 Q93.9448,158.375 94.5854,158.5313 Q95.2417,158.6875 95.8042,158.9844 L95.8042,161.7031 Q95.1792,161.125 94.5854,160.8594 Q93.9917,160.5781 93.3667,160.5781 Q92.0229,160.5781 91.3354,161.6563 Q90.6479,162.7188 90.6479,164.8125 Q90.6479,166.9063 91.3354,167.9844 Q92.0229,169.0469 93.3667,169.0469 Q93.9917,169.0469 94.5854,168.7813 Q95.1792,168.5 95.8042,167.9219 L95.8042,170.6406 Z " fill="#000000"/><ellipse cx="118.3354" cy="164.5" fill="#84BE84" rx="3" ry="3" style="stroke:#038048;stroke-width:1;"/><text fill="#000000" font-family="sans-serif" font-size="14" lengthAdjust="spacing" textLength="133.3008" x="124.3354" y="169.8467">detect_water_body</text><line style="stroke:#181818;stroke-width:0.5;" x1="41.5" x2="296.9717" y1="181" y2="181"/><text fill="#000000" font-family="sans-serif" font-size="14" lengthAdjust="spacing" textLength="4.4502" x="60.5" y="218.292">&#160;</text><ellipse cx="51.5" cy="231.2422" fill="none" rx="3" ry="3" style="stroke:#038048;stroke-width:1;"/><text fill="#000000" font-family="sans-serif" font-size="14" lengthAdjust="spacing" textLength="70.3896" x="60.5" y="234.5889">aoi: string</text><text fill="#000000" font-family="sans-serif" font-size="14" lengthAdjust="spacing" textLength="4.4502" x="60.5" y="250.8857">&#160;</text><ellipse cx="51.5" cy="263.8359" fill="none" rx="3" ry="3" style="stroke:#038048;stroke-width:1;"/><text fill="#000000" font-family="sans-serif" font-size="14" lengthAdjust="spacing" textLength="181.0361" x="60.5" y="267.1826">epsg: string = EPSG:4326</text><text fill="#000000" font-family="sans-serif" font-size="14" lengthAdjust="spacing" textLength="4.4502" x="60.5" y="283.4795">&#160;</text><ellipse cx="51.5" cy="296.4297" fill="none" rx="3" ry="3" style="stroke:#038048;stroke-width:1;"/><text fill="#000000" font-family="sans-serif" font-size="14" lengthAdjust="spacing" textLength="102.7988" x="60.5" y="299.7764">bands: string[]</text><text fill="#000000" font-family="sans-serif" font-size="14" lengthAdjust="spacing" textLength="4.4502" x="60.5" y="316.0732">&#160;</text><ellipse cx="51.5" cy="329.0234" fill="none" rx="3" ry="3" style="stroke:#038048;stroke-width:1;"/><text fill="#000000" font-family="sans-serif" font-size="14" lengthAdjust="spacing" textLength="80.9854" x="60.5" y="332.3701">item: string</text><text fill="#000000" font-family="sans-serif" font-size="14" lengthAdjust="spacing" textLength="4.4502" x="60.5" y="348.667">&#160;</text><text fill="#000000" font-family="sans-serif" font-size="14" lengthAdjust="spacing" textLength="4.4502" x="60.5" y="364.9639">&#160;</text><line style="stroke:#181818;stroke-width:0.5;" x1="41.5" x2="147.4634" y1="197.1484" y2="197.1484"/><text fill="#000000" font-family="sans-serif" font-size="14" lengthAdjust="spacing" textLength="43.5449" x="147.4634" y="201.4951">Inputs</text><line style="stroke:#181818;stroke-width:0.5;" x1="191.0083" x2="296.9717" y1="197.1484" y2="197.1484"/><text fill="#000000" font-family="sans-serif" font-size="14" lengthAdjust="spacing" textLength="4.4502" x="60.5" y="401.5576">&#160;</text><ellipse cx="51.5" cy="414.5078" fill="none" rx="3" ry="3" style="stroke:#038048;stroke-width:1;"/><text fill="#000000" font-family="sans-serif" font-size="14" lengthAdjust="spacing" textLength="184.4131" x="60.5" y="417.8545">detected_water_body: File</text><text fill="#000000" font-family="sans-serif" font-size="14" lengthAdjust="spacing" textLength="4.4502" x="60.5" y="434.1514">&#160;</text><ellipse cx="51.5" cy="447.1016" fill="none" rx="3" ry="3" style="stroke:#038048;stroke-width:1;"/><text fill="#000000" font-family="sans-serif" font-size="14" lengthAdjust="spacing" textLength="66.7119" x="60.5" y="450.4482">ndwi: File</text><text fill="#000000" font-family="sans-serif" font-size="14" lengthAdjust="spacing" textLength="4.4502" x="60.5" y="466.7451">&#160;</text><text fill="#000000" font-family="sans-serif" font-size="14" lengthAdjust="spacing" textLength="4.4502" x="60.5" y="483.042">&#160;</text><text fill="#000000" font-family="sans-serif" font-size="14" lengthAdjust="spacing" textLength="4.4502" x="60.5" y="499.3389">&#160;</text><line style="stroke:#181818;stroke-width:0.5;" x1="41.5" x2="141.2734" y1="380.4141" y2="380.4141"/><text fill="#000000" font-family="sans-serif" font-size="14" lengthAdjust="spacing" textLength="55.9248" x="141.2734" y="384.7607">Outputs</text><line style="stroke:#181818;stroke-width:0.5;" x1="197.1982" x2="296.9717" y1="380.4141" y2="380.4141"/><text fill="#000000" font-family="sans-serif" font-size="14" lengthAdjust="spacing" textLength="4.4502" x="60.5" y="535.9326">&#160;</text><rect fill="none" height="6" style="stroke:#C82930;stroke-width:1;" width="6" x="48.5" y="545.8828"/><text fill="#000000" font-family="sans-serif" font-size="14" lengthAdjust="spacing" textLength="70.9775" x="60.5" y="552.2295">crop: crop</text><text fill="#000000" font-family="sans-serif" font-size="14" lengthAdjust="spacing" textLength="4.4502" x="60.5" y="568.5264">&#160;</text><rect fill="none" height="6" style="stroke:#C82930;stroke-width:1;" width="6" x="48.5" y="578.4766"/><text fill="#000000" font-family="sans-serif" font-size="14" lengthAdjust="spacing" textLength="231.4717" x="60.5" y="584.8232">normalized_difference: norm_diff</text><text fill="#000000" font-family="sans-serif" font-size="14" lengthAdjust="spacing" textLength="4.4502" x="60.5" y="601.1201">&#160;</text><rect fill="none" height="6" style="stroke:#C82930;stroke-width:1;" width="6" x="48.5" y="611.0703"/><text fill="#000000" font-family="sans-serif" font-size="14" lengthAdjust="spacing" textLength="69.6104" x="60.5" y="617.417">otsu: otsu</text><text fill="#000000" font-family="sans-serif" font-size="14" lengthAdjust="spacing" textLength="4.4502" x="60.5" y="633.7139">&#160;</text><text fill="#000000" font-family="sans-serif" font-size="14" lengthAdjust="spacing" textLength="4.4502" x="60.5" y="650.0107">&#160;</text><line style="stroke:#181818;stroke-width:0.5;" x1="41.5" x2="149.6509" y1="514.7891" y2="514.7891"/><text fill="#000000" font-family="sans-serif" font-size="14" lengthAdjust="spacing" textLength="39.1699" x="149.6509" y="519.1357">Steps</text><line style="stroke:#181818;stroke-width:0.5;" x1="188.8208" x2="296.9717" y1="514.7891" y2="514.7891"/></g><!--class Workflow--><g class="entity" data-entity="Workflow" data-source-line="28" data-uid="ent0004" id="entity_Workflow"><rect fill="#F1F1F1" height="48" rx="2.5" ry="2.5" style="stroke:#181818;stroke-width:0.5;" width="97.1055" x="120.5" y="41"/><ellipse cx="135.5" cy="57" fill="#ADD1B2" rx="11" ry="11" style="stroke:#181818;stroke-width:1;"/><path d="M138.4688,62.6406 Q137.8906,62.9375 137.25,63.0781 Q136.6094,63.2344 135.9063,63.2344 Q133.4063,63.2344 132.0781,61.5938 Q130.7656,59.9375 130.7656,56.8125 Q130.7656,53.6875 132.0781,52.0313 Q133.4063,50.375 135.9063,50.375 Q136.6094,50.375 137.25,50.5313 Q137.9063,50.6875 138.4688,50.9844 L138.4688,53.7031 Q137.8438,53.125 137.25,52.8594 Q136.6563,52.5781 136.0313,52.5781 Q134.6875,52.5781 134,53.6563 Q133.3125,54.7188 133.3125,56.8125 Q133.3125,58.9063 134,59.9844 Q134.6875,61.0469 136.0313,61.0469 Q136.6563,61.0469 137.25,60.7813 Q137.8438,60.5 138.4688,59.9219 L138.4688,62.6406 Z " fill="#000000"/><text fill="#000000" font-family="sans-serif" font-size="14" lengthAdjust="spacing" textLength="65.1055" x="149.5" y="61.8467">Workflow</text><line style="stroke:#181818;stroke-width:0.5;" x1="121.5" x2="216.6055" y1="73" y2="73"/><line style="stroke:#181818;stroke-width:0.5;" x1="121.5" x2="216.6055" y1="81" y2="81"/></g><!--class CommandLineTool_crop--><g class="entity" data-entity="CommandLineTool_crop" data-source-line="84" data-uid="ent0007" id="entity_CommandLineTool_crop"><rect fill="#F1F1F1" height="325.0469" rx="2.5" ry="2.5" style="stroke:#181818;stroke-width:0.5;" width="116.9043" x="706.5" y="717"/><ellipse cx="740.8496" cy="733" fill="#ADD1B2" rx="11" ry="11" style="stroke:#181818;stroke-width:1;"/><path d="M743.8183,738.6406 Q743.2402,738.9375 742.5996,739.0781 Q741.9589,739.2344 741.2558,739.2344 Q738.7558,739.2344 737.4277,737.5938 Q736.1152,735.9375 736.1152,732.8125 Q736.1152,729.6875 737.4277,728.0313 Q738.7558,726.375 741.2558,726.375 Q741.9589,726.375 742.5996,726.5313 Q743.2558,726.6875 743.8183,726.9844 L743.8183,729.7031 Q743.1933,729.125 742.5996,728.8594 Q742.0058,728.5781 741.3808,728.5781 Q740.0371,728.5781 739.3496,729.6563 Q738.6621,730.7188 738.6621,732.8125 Q738.6621,734.9063 739.3496,735.9844 Q740.0371,737.0469 741.3808,737.0469 Q742.0058,737.0469 742.5996,736.7813 Q743.1933,736.5 743.8183,735.9219 L743.8183,738.6406 Z " fill="#000000"/><ellipse cx="764.1495" cy="732.5" fill="#84BE84" rx="3" ry="3" style="stroke:#038048;stroke-width:1;"/><text fill="#000000" font-family="sans-serif" font-size="14" lengthAdjust="spacing" textLength="30.9053" x="770.1495" y="737.8467">crop</text><line style="stroke:#181818;stroke-width:0.5;" x1="707.5" x2="822.4043" y1="749" y2="749"/><text fill="#000000" font-family="sans-serif" font-size="14" lengthAdjust="spacing" textLength="4.4502" x="726.5" y="786.292">&#160;</text><ellipse cx="717.5" cy="799.2422" fill="none" rx="3" ry="3" style="stroke:#038048;stroke-width:1;"/><text fill="#000000" font-family="sans-serif" font-size="14" lengthAdjust="spacing" textLength="80.9854" x="726.5" y="802.5889">item: string</text><text fill="#000000" font-family="sans-serif" font-size="14" lengthAdjust="spacing" textLength="4.4502" x="726.5" y="818.8857">&#160;</text><ellipse cx="717.5" cy="831.8359" fill="none" rx="3" ry="3" style="stroke:#038048;stroke-width:1;"/><text fill="#000000" font-family="sans-serif" font-size="14" lengthAdjust="spacing" textLength="70.3896" x="726.5" y="835.1826">aoi: string</text><text fill="#000000" font-family="sans-serif" font-size="14" lengthAdjust="spacing" textLength="4.4502" x="726.5" y="851.4795">&#160;</text><ellipse cx="717.5" cy="864.4297" fill="none" rx="3" ry="3" style="stroke:#038048;stroke-width:1;"/><text fill="#000000" font-family="sans-serif" font-size="14" lengthAdjust="spacing" textLength="83.0361" x="726.5" y="867.7764">epsg: string</text><text fill="#000000" font-family="sans-serif" font-size="14" lengthAdjust="spacing" textLength="4.4502" x="726.5" y="884.0732">&#160;</text><ellipse cx="717.5" cy="897.0234" fill="none" rx="3" ry="3" style="stroke:#038048;stroke-width:1;"/><text fill="#000000" font-family="sans-serif" font-size="14" lengthAdjust="spacing" textLength="84.5811" x="726.5" y="900.3701">band: string</text><text fill="#000000" font-family="sans-serif" font-size="14" lengthAdjust="spacing" textLength="4.4502" x="726.5" y="916.667">&#160;</text><text fill="#000000" font-family="sans-serif" font-size="14" lengthAdjust="spacing" textLength="4.4502" x="726.5" y="932.9639">&#160;</text><line style="stroke:#181818;stroke-width:0.5;" x1="707.5" x2="743.1797" y1="765.1484" y2="765.1484"/><text fill="#000000" font-family="sans-serif" font-size="14" lengthAdjust="spacing" textLength="43.5449" x="743.1797" y="769.4951">Inputs</text><line style="stroke:#181818;stroke-width:0.5;" x1="786.7246" x2="822.4043" y1="765.1484" y2="765.1484"/><text fill="#000000" font-family="sans-serif" font-size="14" lengthAdjust="spacing" textLength="4.4502" x="726.5" y="969.5576">&#160;</text><ellipse cx="717.5" cy="982.5078" fill="none" rx="3" ry="3" style="stroke:#038048;stroke-width:1;"/><text fill="#000000" font-family="sans-serif" font-size="14" lengthAdjust="spacing" textLength="90.9043" x="726.5" y="985.8545">cropped: File</text><text fill="#000000" font-family="sans-serif" font-size="14" lengthAdjust="spacing" textLength="4.4502" x="726.5" y="1002.1514">&#160;</text><text fill="#000000" font-family="sans-serif" font-size="14" lengthAdjust="spacing" textLength="4.4502" x="726.5" y="1018.4482">&#160;</text><text fill="#000000" font-family="sans-serif" font-size="14" lengthAdjust="spacing" textLength="4.4502" x="726.5" y="1034.7451">&#160;</text><line style="stroke:#181818;stroke-width:0.5;" x1="707.5" x2="736.9897" y1="948.4141" y2="948.4141"/><text fill="#000000" font-family="sans-serif" font-size="14" lengthAdjust="spacing" textLength="55.9248" x="736.9897" y="952.7607">Outputs</text><line style="stroke:#181818;stroke-width:0.5;" x1="792.9146" x2="822.4043" y1="948.4141" y2="948.4141"/></g><!--class CommandLineTool--><g class="entity" data-entity="CommandLineTool" data-source-line="85" data-uid="ent0008" id="entity_CommandLineTool"><rect fill="#F1F1F1" height="48" rx="2.5" ry="2.5" style="stroke:#181818;stroke-width:0.5;" width="162.7031" x="496.5" y="379"/><ellipse cx="511.5" cy="395" fill="#ADD1B2" rx="11" ry="11" style="stroke:#181818;stroke-width:1;"/><path d="M514.4688,400.6406 Q513.8906,400.9375 513.25,401.0781 Q512.6094,401.2344 511.9063,401.2344 Q509.4063,401.2344 508.0781,399.5938 Q506.7656,397.9375 506.7656,394.8125 Q506.7656,391.6875 508.0781,390.0313 Q509.4063,388.375 511.9063,388.375 Q512.6094,388.375 513.25,388.5313 Q513.9063,388.6875 514.4688,388.9844 L514.4688,391.7031 Q513.8438,391.125 513.25,390.8594 Q512.6563,390.5781 512.0313,390.5781 Q510.6875,390.5781 510,391.6563 Q509.3125,392.7188 509.3125,394.8125 Q509.3125,396.9063 510,397.9844 Q510.6875,399.0469 512.0313,399.0469 Q512.6563,399.0469 513.25,398.7813 Q513.8438,398.5 514.4688,397.9219 L514.4688,400.6406 Z " fill="#000000"/><text fill="#000000" font-family="sans-serif" font-size="14" lengthAdjust="spacing" textLength="130.7031" x="525.5" y="399.8467">CommandLineTool</text><line style="stroke:#181818;stroke-width:0.5;" x1="497.5" x2="658.2031" y1="411" y2="411"/><line style="stroke:#181818;stroke-width:0.5;" x1="497.5" x2="658.2031" y1="419" y2="419"/></g><!--class CommandLineTool_norm_diff--><g class="entity" data-entity="CommandLineTool_norm_diff" data-source-line="130" data-uid="ent0011" id="entity_CommandLineTool_norm_diff"><rect fill="#F1F1F1" height="227.2656" rx="2.5" ry="2.5" style="stroke:#181818;stroke-width:0.5;" width="119.3174" x="330.5" y="766"/><ellipse cx="349.9332" cy="782" fill="#ADD1B2" rx="11" ry="11" style="stroke:#181818;stroke-width:1;"/><path d="M352.902,787.6406 Q352.3238,787.9375 351.6832,788.0781 Q351.0426,788.2344 350.3395,788.2344 Q347.8395,788.2344 346.5113,786.5938 Q345.1988,784.9375 345.1988,781.8125 Q345.1988,778.6875 346.5113,777.0313 Q347.8395,775.375 350.3395,775.375 Q351.0426,775.375 351.6832,775.5313 Q352.3395,775.6875 352.902,775.9844 L352.902,778.7031 Q352.277,778.125 351.6832,777.8594 Q351.0895,777.5781 350.4645,777.5781 Q349.1207,777.5781 348.4332,778.6563 Q347.7457,779.7188 347.7457,781.8125 Q347.7457,783.9063 348.4332,784.9844 Q349.1207,786.0469 350.4645,786.0469 Q351.0895,786.0469 351.6832,785.7813 Q352.277,785.5 352.902,784.9219 L352.902,787.6406 Z " fill="#000000"/><ellipse cx="369.9184" cy="781.5" fill="#84BE84" rx="3" ry="3" style="stroke:#038048;stroke-width:1;"/><text fill="#000000" font-family="sans-serif" font-size="14" lengthAdjust="spacing" textLength="66.4658" x="375.9184" y="786.8467">norm_diff</text><line style="stroke:#181818;stroke-width:0.5;" x1="331.5" x2="448.8174" y1="798" y2="798"/><text fill="#000000" font-family="sans-serif" font-size="14" lengthAdjust="spacing" textLength="4.4502" x="350.5" y="835.292">&#160;</text><ellipse cx="341.5" cy="848.2422" fill="none" rx="3" ry="3" style="stroke:#038048;stroke-width:1;"/><text fill="#000000" font-family="sans-serif" font-size="14" lengthAdjust="spacing" textLength="93.3174" x="350.5" y="851.5889">rasters: File[]</text><text fill="#000000" font-family="sans-serif" font-size="14" lengthAdjust="spacing" textLength="4.4502" x="350.5" y="867.8857">&#160;</text><text fill="#000000" font-family="sans-serif" font-size="14" lengthAdjust="spacing" textLength="4.4502" x="350.5" y="884.1826">&#160;</text><line style="stroke:#181818;stroke-width:0.5;" x1="331.5" x2="368.3862" y1="814.1484" y2="814.1484"/><text fill="#000000" font-family="sans-serif" font-size="14" lengthAdjust="spacing" textLength="43.5449" x="368.3862" y="818.4951">Inputs</text><line style="stroke:#181818;stroke-width:0.5;" x1="411.9312" x2="448.8174" y1="814.1484" y2="814.1484"/><text fill="#000000" font-family="sans-serif" font-size="14" lengthAdjust="spacing" textLength="4.4502" x="350.5" y="920.7764">&#160;</text><ellipse cx="341.5" cy="933.7266" fill="none" rx="3" ry="3" style="stroke:#038048;stroke-width:1;"/><text fill="#000000" font-family="sans-serif" font-size="14" lengthAdjust="spacing" textLength="66.7119" x="350.5" y="937.0732">ndwi: File</text><text fill="#000000" font-family="sans-serif" font-size="14" lengthAdjust="spacing" textLength="4.4502" x="350.5" y="953.3701">&#160;</text><text fill="#000000" font-family="sans-serif" font-size="14" lengthAdjust="spacing" textLength="4.4502" x="350.5" y="969.667">&#160;</text><text fill="#000000" font-family="sans-serif" font-size="14" lengthAdjust="spacing" textLength="4.4502" x="350.5" y="985.9639">&#160;</text><line style="stroke:#181818;stroke-width:0.5;" x1="331.5" x2="362.1963" y1="899.6328" y2="899.6328"/><text fill="#000000" font-family="sans-serif" font-size="14" lengthAdjust="spacing" textLength="55.9248" x="362.1963" y="903.9795">Outputs</text><line style="stroke:#181818;stroke-width:0.5;" x1="418.1211" x2="448.8174" y1="899.6328" y2="899.6328"/></g><!--class CommandLineTool_otsu--><g class="entity" data-entity="CommandLineTool_otsu" data-source-line="158" data-uid="ent0014" id="entity_CommandLineTool_otsu"><rect fill="#F1F1F1" height="227.2656" rx="2.5" ry="2.5" style="stroke:#181818;stroke-width:0.5;" width="187.1299" x="484.5" y="766"/><ellipse cx="553.2041" cy="782" fill="#ADD1B2" rx="11" ry="11" style="stroke:#181818;stroke-width:1;"/><path d="M556.1729,787.6406 Q555.5947,787.9375 554.9541,788.0781 Q554.3135,788.2344 553.6104,788.2344 Q551.1104,788.2344 549.7822,786.5938 Q548.4697,784.9375 548.4697,781.8125 Q548.4697,778.6875 549.7822,777.0313 Q551.1104,775.375 553.6104,775.375 Q554.3135,775.375 554.9541,775.5313 Q555.6104,775.6875 556.1729,775.9844 L556.1729,778.7031 Q555.5479,778.125 554.9541,777.8594 Q554.3604,777.5781 553.7354,777.5781 Q552.3916,777.5781 551.7041,778.6563 Q551.0166,779.7188 551.0166,781.8125 Q551.0166,783.9063 551.7041,784.9844 Q552.3916,786.0469 553.7354,786.0469 Q554.3604,786.0469 554.9541,785.7813 Q555.5479,785.5 556.1729,784.9219 L556.1729,787.6406 Z " fill="#000000"/><ellipse cx="578.7041" cy="781.5" fill="#84BE84" rx="3" ry="3" style="stroke:#038048;stroke-width:1;"/><text fill="#000000" font-family="sans-serif" font-size="14" lengthAdjust="spacing" textLength="30.2217" x="584.7041" y="786.8467">otsu</text><line style="stroke:#181818;stroke-width:0.5;" x1="485.5" x2="670.6299" y1="798" y2="798"/><text fill="#000000" font-family="sans-serif" font-size="14" lengthAdjust="spacing" textLength="4.4502" x="504.5" y="835.292">&#160;</text><ellipse cx="495.5" cy="848.2422" fill="none" rx="3" ry="3" style="stroke:#038048;stroke-width:1;"/><text fill="#000000" font-family="sans-serif" font-size="14" lengthAdjust="spacing" textLength="75.0996" x="504.5" y="851.5889">raster: File</text><text fill="#000000" font-family="sans-serif" font-size="14" lengthAdjust="spacing" textLength="4.4502" x="504.5" y="867.8857">&#160;</text><text fill="#000000" font-family="sans-serif" font-size="14" lengthAdjust="spacing" textLength="4.4502" x="504.5" y="884.1826">&#160;</text><line style="stroke:#181818;stroke-width:0.5;" x1="485.5" x2="556.2925" y1="814.1484" y2="814.1484"/><text fill="#000000" font-family="sans-serif" font-size="14" lengthAdjust="spacing" textLength="43.5449" x="556.2925" y="818.4951">Inputs</text><line style="stroke:#181818;stroke-width:0.5;" x1="599.8374" x2="670.6299" y1="814.1484" y2="814.1484"/><text fill="#000000" font-family="sans-serif" font-size="14" lengthAdjust="spacing" textLength="4.4502" x="504.5" y="920.7764">&#160;</text><ellipse cx="495.5" cy="933.7266" fill="none" rx="3" ry="3" style="stroke:#038048;stroke-width:1;"/><text fill="#000000" font-family="sans-serif" font-size="14" lengthAdjust="spacing" textLength="161.1299" x="504.5" y="937.0732">binary_mask_item: File</text><text fill="#000000" font-family="sans-serif" font-size="14" lengthAdjust="spacing" textLength="4.4502" x="504.5" y="953.3701">&#160;</text><text fill="#000000" font-family="sans-serif" font-size="14" lengthAdjust="spacing" textLength="4.4502" x="504.5" y="969.667">&#160;</text><text fill="#000000" font-family="sans-serif" font-size="14" lengthAdjust="spacing" textLength="4.4502" x="504.5" y="985.9639">&#160;</text><line style="stroke:#181818;stroke-width:0.5;" x1="485.5" x2="550.1025" y1="899.6328" y2="899.6328"/><text fill="#000000" font-family="sans-serif" font-size="14" lengthAdjust="spacing" textLength="55.9248" x="550.1025" y="903.9795">Outputs</text><line style="stroke:#181818;stroke-width:0.5;" x1="606.0273" x2="670.6299" y1="899.6328" y2="899.6328"/></g><!--class ScatterFeatureRequirement--><g class="entity" data-entity="ScatterFeatureRequirement" data-source-line="187" data-uid="ent0018" id="entity_ScatterFeatureRequirement"><rect fill="#F1F1F1" height="48" rx="2.5" ry="2.5" style="stroke:#181818;stroke-width:0.5;" width="227.46" x="46.5" y="855.5"/><ellipse cx="61.5" cy="871.5" fill="#ADD1B2" rx="11" ry="11" style="stroke:#181818;stroke-width:1;"/><path d="M64.4688,877.1406 Q63.8906,877.4375 63.25,877.5781 Q62.6094,877.7344 61.9063,877.7344 Q59.4063,877.7344 58.0781,876.0938 Q56.7656,874.4375 56.7656,871.3125 Q56.7656,868.1875 58.0781,866.5313 Q59.4063,864.875 61.9063,864.875 Q62.6094,864.875 63.25,865.0313 Q63.9063,865.1875 64.4688,865.4844 L64.4688,868.2031 Q63.8438,867.625 63.25,867.3594 Q62.6563,867.0781 62.0313,867.0781 Q60.6875,867.0781 60,868.1563 Q59.3125,869.2188 59.3125,871.3125 Q59.3125,873.4063 60,874.4844 Q60.6875,875.5469 62.0313,875.5469 Q62.6563,875.5469 63.25,875.2813 Q63.8438,875 64.4688,874.4219 L64.4688,877.1406 Z " fill="#000000"/><text fill="#000000" font-family="sans-serif" font-size="14" lengthAdjust="spacing" textLength="195.46" x="75.5" y="876.3467">ScatterFeatureRequirement</text><line style="stroke:#181818;stroke-width:0.5;" x1="47.5" x2="272.96" y1="887.5" y2="887.5"/><line style="stroke:#181818;stroke-width:0.5;" x1="47.5" x2="272.96" y1="895.5" y2="895.5"/></g><!--reverse link Workflow to Workflow_detect_water_body--><g class="link" data-entity-1="Workflow" data-entity-2="Workflow_detect_water_body" data-source-line="28" data-uid="lnk5" id="link_Workflow_Workflow_detect_water_body"><path d="M169,107.09 C169,121.85 169,124.68 169,148.68" fill="none" id="Workflow-backto-Workflow_detect_water_body" style="stroke:#181818;stroke-width:1;"/><polygon fill="none" points="169,89.09,163,107.09,175,107.09,169,89.09" style="stroke:#181818;stroke-width:1;"/></g><!--reverse link CommandLineTool to CommandLineTool_crop--><g class="link" data-entity-1="CommandLineTool" data-entity-2="CommandLineTool_crop" data-source-line="85" data-uid="lnk9" id="link_CommandLineTool_CommandLineTool_crop"><path d="M593.7493,443.9566 C615.1393,498.2366 663.3,620.45 706.46,729.95" fill="none" id="CommandLineTool-backto-CommandLineTool_crop" style="stroke:#181818;stroke-width:1;"/><polygon fill="none" points="587.15,427.21,588.1671,446.1564,599.3315,441.7569,587.15,427.21" style="stroke:#181818;stroke-width:1;"/></g><!--link Workflow_detect_water_body to CommandLineTool_crop--><g class="link" data-entity-1="Workflow_detect_water_body" data-entity-2="CommandLineTool_crop" data-source-line="121" data-uid="lnk10" id="link_Workflow_detect_water_body_CommandLineTool_crop"><path codeLine="121" d="M297.7,644.51 C302.94,648.94 308.38,653.12 314,657 C452.87,752.93 554.1,615.55 689,717 C695.32,721.75 697.1,722.7049 702.44,728.5949" fill="none" id="Workflow_detect_water_body-to-CommandLineTool_crop" style="stroke:#181818;stroke-width:1;"/><polygon fill="#181818" points="706.47,733.04,703.3884,723.6857,703.1116,729.3357,697.4616,729.059,706.47,733.04" style="stroke:#181818;stroke-width:1;"/></g><!--reverse link CommandLineTool to CommandLineTool_norm_diff--><g class="link" data-entity-1="CommandLineTool" data-entity-2="CommandLineTool_norm_diff" data-source-line="131" data-uid="lnk12" id="link_CommandLineTool_CommandLineTool_norm_diff"><path d="M565.9437,444.5727 C552.4637,489.5627 526.15,573.94 493,657 C484.34,678.71 464.03,722.81 443.72,765.98" fill="none" id="CommandLineTool-backto-CommandLineTool_norm_diff" style="stroke:#181818;stroke-width:1;"/><polygon fill="none" points="571.11,427.33,560.1962,442.8506,571.6913,446.2948,571.11,427.33" style="stroke:#181818;stroke-width:1;"/></g><!--link Workflow_detect_water_body to CommandLineTool_norm_diff--><g class="link" data-entity-1="Workflow_detect_water_body" data-entity-2="CommandLineTool_norm_diff" data-source-line="149" data-uid="lnk13" id="link_Workflow_detect_water_body_CommandLineTool_norm_diff"><path codeLine="149" d="M286.94,657.23 C304.68,695.32 319.6366,727.4211 335.0266,760.4611" fill="none" id="Workflow_detect_water_body-to-CommandLineTool_norm_diff" style="stroke:#181818;stroke-width:1;"/><polygon fill="#181818" points="337.56,765.9,337.3858,756.0527,335.4488,761.3676,330.1339,759.4306,337.56,765.9" style="stroke:#181818;stroke-width:1;"/></g><!--reverse link CommandLineTool to CommandLineTool_otsu--><g class="link" data-entity-1="CommandLineTool" data-entity-2="CommandLineTool_otsu" data-source-line="159" data-uid="lnk15" id="link_CommandLineTool_CommandLineTool_otsu"><path d="M578,445.21 C578,505.63 578,652.96 578,765.81" fill="none" id="CommandLineTool-backto-CommandLineTool_otsu" style="stroke:#181818;stroke-width:1;"/><polygon fill="none" points="578,427.21,572,445.21,584,445.21,578,427.21" style="stroke:#181818;stroke-width:1;"/></g><!--link Workflow_detect_water_body to CommandLineTool_otsu--><g class="link" data-entity-1="Workflow_detect_water_body" data-entity-2="CommandLineTool_otsu" data-source-line="177" data-uid="lnk16" id="link_Workflow_detect_water_body_CommandLineTool_otsu"><path codeLine="177" d="M297.55,641.58 C302.86,646.96 308.35,652.12 314,657 C369.29,704.72 409.8,671.57 467,717 C484.32,730.75 496.3565,743.163 510.1065,761.153" fill="none" id="Workflow_detect_water_body-to-CommandLineTool_otsu" style="stroke:#181818;stroke-width:1;"/><polygon fill="#181818" points="513.75,765.92,511.4628,756.3404,510.7137,761.9475,505.1067,761.1984,513.75,765.92" style="stroke:#181818;stroke-width:1;"/></g><!--link Workflow_detect_water_body to ScatterFeatureRequirement--><g class="link" data-entity-1="Workflow_detect_water_body" data-entity-2="ScatterFeatureRequirement" data-source-line="188" data-uid="lnk19" id="link_Workflow_detect_water_body_ScatterFeatureRequirement"><path codeLine="188" d="M164.2,657.23 C162.65,738.71 161.2628,811.6811 160.5528,849.4311" fill="none" id="Workflow_detect_water_body-to-ScatterFeatureRequirement" style="stroke:#181818;stroke-width:1;"/><polygon fill="#181818" points="160.44,855.43,164.6085,846.5068,160.534,850.4309,156.6099,846.3564,160.44,855.43" style="stroke:#181818;stroke-width:1;"/></g><!--SRC=[vLPHRvim47xFhpZb9GzLKagMhaBQNjPrgZHjqr8f3zE43BvGAs0psopBflxt6b082Gwq3NkOneDryXtdExxlyt4-6i08hXc994aWGewIQAGGR21SnswQ9J7yT2RJsSJ90pLBK6cIf1wuZdivTgPZrxbpBpptoflD9XUlhqpK-Q3-W7cAPSzexfQHAGbN948OBamP4W91Dq1HOwYPu10GPMepngVhnIqGRcojCj3t4jMzYEaG_WngoSx2c2W5mpA1lyvJ-ddA8H052o5NorYi_OORy9T6JdSX9kssLj-7MvvcMXchsTOP4C4yK5eo7jdScAfewuStyFxB_8FtQkfUsc83qw3Q1d_xRWjX6fFcSVLYFsUwfTgoTQIrvZsuOJ7QWZbTiqDlCywSETUcpVg9Um5Z2AKm1ChNOn5So8J4xBUfZBBb4YNo4BrYkzWuzbvE1wzOMvZsSC39oXgP0u2ZePWMG2W5qaQIyVXj_Sl_T_bsMIlH5i0FQshPHy6EoT6Dff1poXJQVIUInAZZ8-Du9qJivuvAjGVEPuZNBgSNYVkOe4zHQzvbYhHTWyzXj_KpleWt_tocAcE70cn9M-wQ_hXVtNrM0LJU7bGWYJ8jgv9czRdpTAPsZufJQBfhDaUaEkLaB3l6Iy-0vbFAYcNnJzCNZ4THwCGmO9p8ZPyGjVBBY_5luLaqt2-KJ_i5i8omh_WZOn8JvBfbacsD4ifvIBIfvWQ9pYJMCbHn7TLt9-XeuU4H]--></g></svg>