<svg xmlns="http://www.w3.org/2000/svg" xmlns:xlink="http://www.w3.org/1999/xlink" contentStyleType="text/css" data-diagram-type="DESCRIPTION" height="984px" preserveAspectRatio="none" style="width:488px;height:984px;background:#FFFFFF;" version="1.1" viewBox="0 0 488 984" width="488px" zoomAndPan="magnify"><defs/><g><!--cluster Workflow 'detect_water_body'--><g class="cluster" data-entity="Workflow .detect_water_body." data-source-line="12" data-uid="ent0002" id="cluster_Workflow .detect_water_body."><polygon fill="none" points="16,16,26,6,471,6,471,957,461,967,16,967,16,16" style="stroke:#181818;stroke-width:1;"/><line style="stroke:#181818;stroke-width:1;" x1="461" x2="471" y1="16" y2="6"/><line style="stroke:#181818;stroke-width:1;" x1="16" x2="461" y1="16" y2="16"/><line style="stroke:#181818;stroke-width:1;" x1="461" x2="461" y1="16" y2="967"/><text fill="#000000" font-family="sans-serif" font-size="14" font-weight="bold" lengthAdjust="spacing" textLength="237.1182" x="120.9409" y="31.9951">Workflow 'detect_water_body'</text></g><!--cluster detect_water_body--><g class="cluster" data-entity="detect_water_body" data-source-line="13" data-uid="ent0003" id="cluster_detect_water_body"><rect fill="none" height="180" rx="2.5" ry="2.5" style="stroke:#181818;stroke-width:1;" width="198" x="28" y="72"/><rect fill="none" height="10" style="stroke:#181818;stroke-width:1;" width="15" x="206" y="77"/><rect fill="none" height="2" style="stroke:#181818;stroke-width:1;" width="4" x="204" y="79"/><rect fill="none" height="2" style="stroke:#181818;stroke-width:1;" width="4" x="204" y="83"/><text fill="#000000" font-family="sans-serif" font-size="14" font-weight="bold" lengthAdjust="spacing" textLength="148.9551" x="52.5225" y="97.9951">detect_water_body</text></g><!--cluster detect_water_body_crop--><g class="cluster" data-entity="detect_water_body_crop" data-source-line="31" data-uid="ent0010" id="cluster_detect_water_body_crop"><rect fill="none" height="193.5" rx="2.5" ry="2.5" style="stroke:#181818;stroke-width:1;" width="177" x="247" y="159.5"/><path d="M291.8428,159.5 L291.8428,168.7969 L281.8428,178.7969 L247,178.7969" fill="none" style="stroke:#181818;stroke-width:1;"/><text fill="#000000" font-family="sans-serif" font-size="14" font-weight="bold" lengthAdjust="spacing" textLength="34.8428" x="250" y="173.4951">crop</text></g><!--cluster detect_water_body_normalized_difference--><g class="cluster" data-entity="detect_water_body_normalized_difference" data-source-line="73" data-uid="ent0021" id="cluster_detect_water_body_normalized_difference"><rect fill="none" height="190" rx="2.5" ry="2.5" style="stroke:#181818;stroke-width:1;" width="285" x="90" y="449"/><path d="M275.4443,449 L275.4443,458.2969 L265.4443,468.2969 L90,468.2969" fill="none" style="stroke:#181818;stroke-width:1;"/><text fill="#000000" font-family="sans-serif" font-size="14" font-weight="bold" lengthAdjust="spacing" textLength="175.4443" x="93" y="462.9951">normalized_difference</text></g><!--cluster detect_water_body_otsu--><g class="cluster" data-entity="detect_water_body_otsu" data-source-line="91" data-uid="ent0026" id="cluster_detect_water_body_otsu"><rect fill="none" height="202" rx="2.5" ry="2.5" style="stroke:#181818;stroke-width:1;" width="164" x="53" y="723"/><path d="M97.6104,723 L97.6104,732.2969 L87.6104,742.2969 L53,742.2969" fill="none" style="stroke:#181818;stroke-width:1;"/><text fill="#000000" font-family="sans-serif" font-size="14" font-weight="bold" lengthAdjust="spacing" textLength="34.6104" x="56" y="736.9951">otsu</text></g><g class="entity" data-entity="detect_water_body_aoi" data-source-line="15" data-uid="ent0004" id="entity_detect_water_body_aoi"><text fill="#000000" font-family="sans-serif" font-size="14" lengthAdjust="spacing" textLength="21.0342" x="82.4829" y="50.6982">aoi</text><rect fill="#F1F1F1" height="12" style="stroke:#181818;stroke-width:1.5;" width="12" x="87" y="66"/></g><g class="entity" data-entity="detect_water_body_epsg" data-source-line="17" data-uid="ent0005" id="entity_detect_water_body_epsg"><text fill="#000000" font-family="sans-serif" font-size="14" lengthAdjust="spacing" textLength="33.6807" x="123.1597" y="50.6982">epsg</text><rect fill="#F1F1F1" height="12" style="stroke:#181818;stroke-width:1.5;" width="12" x="134" y="66"/></g><g class="entity" data-entity="detect_water_body_bands" data-source-line="19" data-uid="ent0006" id="entity_detect_water_body_bands"><text fill="#000000" font-family="sans-serif" font-size="14" lengthAdjust="spacing" textLength="42.5195" x="186.7402" y="50.6982">bands</text><rect fill="#F1F1F1" height="12" style="stroke:#181818;stroke-width:1.5;" width="12" x="202" y="66"/></g><g class="entity" data-entity="detect_water_body_item" data-source-line="21" data-uid="ent0007" id="entity_detect_water_body_item"><text fill="#000000" font-family="sans-serif" font-size="14" lengthAdjust="spacing" textLength="31.6299" x="30.1851" y="50.6982">item</text><rect fill="#F1F1F1" height="12" style="stroke:#181818;stroke-width:1.5;" width="12" x="40" y="66"/></g><g class="entity" data-entity="detect_water_body_detected_water_body" data-source-line="24" data-uid="ent0008" id="entity_detect_water_body_detected_water_body"><text fill="#000000" font-family="sans-serif" font-size="14" lengthAdjust="spacing" textLength="150.8008" x="39.5996" y="270.9951">detected_water_body</text><rect fill="#F1F1F1" height="12" style="stroke:#181818;stroke-width:1.5;" width="12" x="109" y="246"/></g><g class="entity" data-entity="detect_water_body_ndwi" data-source-line="26" data-uid="ent0009" id="entity_detect_water_body_ndwi"><text fill="#000000" font-family="sans-serif" font-size="14" lengthAdjust="spacing" textLength="33.0996" x="190.4502" y="270.9951">ndwi</text><rect fill="#F1F1F1" height="12" style="stroke:#181818;stroke-width:1.5;" width="12" x="201" y="246"/></g><g class="entity" data-entity="detect_water_body_crop_item" data-source-line="33" data-uid="ent0011" id="entity_detect_water_body_crop_item"><text fill="#000000" font-family="sans-serif" font-size="14" lengthAdjust="spacing" textLength="31.6299" x="249.1851" y="138.1982">item</text><rect fill="#F1F1F1" height="12" style="stroke:#181818;stroke-width:1.5;" width="12" x="259" y="153.5"/></g><g class="entity" data-entity="detect_water_body_crop_aoi" data-source-line="41" data-uid="ent0013" id="entity_detect_water_body_crop_aoi"><text fill="#000000" font-family="sans-serif" font-size="14" lengthAdjust="spacing" textLength="21.0342" x="301.4829" y="138.1982">aoi</text><rect fill="#F1F1F1" height="12" style="stroke:#181818;stroke-width:1.5;" width="12" x="306" y="153.5"/></g><g class="entity" data-entity="detect_water_body_crop_epsg" data-source-line="49" data-uid="ent0015" id="entity_detect_water_body_crop_epsg"><text fill="#000000" font-family="sans-serif" font-size="14" lengthAdjust="spacing" textLength="33.6807" x="342.1597" y="138.1982">epsg</text><rect fill="#F1F1F1" height="12" style="stroke:#181818;stroke-width:1.5;" width="12" x="353" y="153.5"/></g><g class="entity" data-entity="detect_water_body_crop_band" data-source-line="57" data-uid="ent0017" id="entity_detect_water_body_crop_band"><text fill="#000000" font-family="sans-serif" font-size="14" lengthAdjust="spacing" textLength="35.2256" x="388.3872" y="138.1982">band</text><rect fill="#F1F1F1" height="12" style="stroke:#181818;stroke-width:1.5;" width="12" x="400" y="153.5"/></g><g class="entity" data-entity="detect_water_body_crop_cropped" data-source-line="67" data-uid="ent0019" id="entity_detect_water_body_crop_cropped"><text fill="#000000" font-family="sans-serif" font-size="14" lengthAdjust="spacing" textLength="57.292" x="355.854" y="371.9951">cropped</text><rect fill="#F1F1F1" height="12" style="stroke:#181818;stroke-width:1.5;" width="12" x="378.5" y="347"/></g><!--entity crop--><g class="entity" data-entity="crop" data-source-line="70" data-uid="ent0020" id="entity_crop"><rect fill="#F1F1F1" height="46.2969" rx="2.5" ry="2.5" style="stroke:#181818;stroke-width:0.5;" width="70.9053" x="267.5" y="229"/><rect fill="#F1F1F1" height="10" style="stroke:#181818;stroke-width:0.5;" width="15" x="318.4053" y="234"/><rect fill="#F1F1F1" height="2" style="stroke:#181818;stroke-width:0.5;" width="4" x="316.4053" y="236"/><rect fill="#F1F1F1" height="2" style="stroke:#181818;stroke-width:0.5;" width="4" x="316.4053" y="240"/><text fill="#000000" font-family="sans-serif" font-size="14" lengthAdjust="spacing" textLength="30.9053" x="282.5" y="261.9951">crop</text></g><g class="entity" data-entity="detect_water_body_normalized_difference_rasters" data-source-line="75" data-uid="ent0022" id="entity_detect_water_body_normalized_difference_rasters"><text fill="#000000" font-family="sans-serif" font-size="14" lengthAdjust="spacing" textLength="48.7813" x="332.6094" y="427.6982">rasters</text><rect fill="#F1F1F1" height="12" style="stroke:#181818;stroke-width:1.5;" width="12" x="351" y="443"/></g><g class="entity" data-entity="detect_water_body_normalized_difference_ndwi" data-source-line="85" data-uid="ent0024" id="entity_detect_water_body_normalized_difference_ndwi"><text fill="#000000" font-family="sans-serif" font-size="14" lengthAdjust="spacing" textLength="33.0996" x="182.4502" y="657.9951">ndwi</text><rect fill="#F1F1F1" height="12" style="stroke:#181818;stroke-width:1.5;" width="12" x="193" y="633"/></g><!--entity norm_diff--><g class="entity" data-entity="norm_diff" data-source-line="88" data-uid="ent0025" id="entity_norm_diff"><rect fill="#F1F1F1" height="46.2969" rx="2.5" ry="2.5" style="stroke:#181818;stroke-width:0.5;" width="106.4658" x="106" y="527"/><rect fill="#F1F1F1" height="10" style="stroke:#181818;stroke-width:0.5;" width="15" x="192.4658" y="532"/><rect fill="#F1F1F1" height="2" style="stroke:#181818;stroke-width:0.5;" width="4" x="190.4658" y="534"/><rect fill="#F1F1F1" height="2" style="stroke:#181818;stroke-width:0.5;" width="4" x="190.4658" y="538"/><text fill="#000000" font-family="sans-serif" font-size="14" lengthAdjust="spacing" textLength="66.4658" x="121" y="559.9951">norm_diff</text></g><g class="entity" data-entity="detect_water_body_otsu_raster" data-source-line="93" data-uid="ent0027" id="entity_detect_water_body_otsu_raster"><text fill="#000000" font-family="sans-serif" font-size="14" lengthAdjust="spacing" textLength="41.4873" x="178.2563" y="701.6982">raster</text><rect fill="#F1F1F1" height="12" style="stroke:#181818;stroke-width:1.5;" width="12" x="193" y="717"/></g><g class="entity" data-entity="detect_water_body_otsu_binary_mask_item" data-source-line="103" data-uid="ent0029" id="entity_detect_water_body_otsu_binary_mask_item"><text fill="#000000" font-family="sans-serif" font-size="14" lengthAdjust="spacing" textLength="127.5176" x="91.7412" y="943.9951">binary_mask_item</text><rect fill="#F1F1F1" height="12" style="stroke:#181818;stroke-width:1.5;" width="12" x="149.5" y="919"/></g><!--entity otsu--><g class="entity" data-entity="otsu" data-source-line="106" data-uid="ent0030" id="entity_otsu"><rect fill="#F1F1F1" height="46.2969" rx="2.5" ry="2.5" style="stroke:#181818;stroke-width:0.5;" width="70.2217" x="69" y="801"/><rect fill="#F1F1F1" height="10" style="stroke:#181818;stroke-width:0.5;" width="15" x="119.2217" y="806"/><rect fill="#F1F1F1" height="2" style="stroke:#181818;stroke-width:0.5;" width="4" x="117.2217" y="808"/><rect fill="#F1F1F1" height="2" style="stroke:#181818;stroke-width:0.5;" width="4" x="117.2217" y="812"/><text fill="#000000" font-family="sans-serif" font-size="14" lengthAdjust="spacing" textLength="30.2217" x="84" y="833.9951">otsu</text></g><!--link detect_water_body_item to detect_water_body_crop_item--><g class="link" data-entity-1="detect_water_body_item" data-entity-2="detect_water_body_crop_item" data-source-line="37" data-uid="lnk12" id="link_detect_water_body_item_detect_water_body_crop_item"><path d="M48,78.27 C48,94.21 48,135 48,135 C48,135 265,135 265,135 C265,135 265,140.06 265,147.32" fill="none" id="detect_water_body_item-to-detect_water_body_crop_item" style="stroke:#181818;stroke-width:1;stroke-dasharray:7,7;"/><polygon fill="#181818" points="265,153.32,269,144.32,265,148.32,261,144.32,265,153.32" style="stroke:#181818;stroke-width:1;"/></g><!--link detect_water_body_aoi to detect_water_body_crop_aoi--><g class="link" data-entity-1="detect_water_body_aoi" data-entity-2="detect_water_body_crop_aoi" data-source-line="45" data-uid="lnk14" id="link_detect_water_body_aoi_detect_water_body_crop_aoi"><path d="M93,78.28 C93,91.29 93,120 93,120 C93,120 312,120 312,120 C312,120 312,136.22 312,147.33" fill="none" id="detect_water_body_aoi-to-detect_water_body_crop_aoi" style="stroke:#181818;stroke-width:1;stroke-dasharray:7,7;"/><polygon fill="#181818" points="312,153.33,316,144.33,312,148.33,308,144.33,312,153.33" style="stroke:#181818;stroke-width:1;"/></g><!--link detect_water_body_epsg to detect_water_body_crop_epsg--><g class="link" data-entity-1="detect_water_body_epsg" data-entity-2="detect_water_body_crop_epsg" data-source-line="53" data-uid="lnk16" id="link_detect_water_body_epsg_detect_water_body_crop_epsg"><path d="M140,78.05 C140,87.58 140,105 140,105 C140,105 359,105 359,105 C359,105 359,132.93 359,147.25" fill="none" id="detect_water_body_epsg-to-detect_water_body_crop_epsg" style="stroke:#181818;stroke-width:1;stroke-dasharray:7,7;"/><polygon fill="#181818" points="359,153.25,363,144.25,359,148.25,355,144.25,359,153.25" style="stroke:#181818;stroke-width:1;"/></g><!--link detect_water_body_bands to detect_water_body_crop_band--><g class="link" data-entity-1="detect_water_body_bands" data-entity-2="detect_water_body_crop_band" data-source-line="61" data-uid="lnk18" id="link_detect_water_body_bands_detect_water_body_crop_band"><path d="M214.14,72 C247.56,72 406,72 406,72 C406,72 406,127.72 406,147.49" fill="none" id="detect_water_body_bands-to-detect_water_body_crop_band" style="stroke:#181818;stroke-width:1;stroke-dasharray:7,7;"/><polygon fill="#181818" points="406,153.49,410,144.49,406,148.49,402,144.49,406,153.49" style="stroke:#181818;stroke-width:1;"/></g><!--link detect_water_body_crop_cropped to detect_water_body_normalized_difference_rasters--><g class="link" data-entity-1="detect_water_body_crop_cropped" data-entity-2="detect_water_body_normalized_difference_rasters" data-source-line="79" data-uid="lnk23" id="link_detect_water_body_crop_cropped_detect_water_body_normalized_difference_rasters"><path d="M370.5,353.07 C370.5,355.93 370.5,440.12 370.5,442.93" fill="none" id="detect_water_body_crop_cropped-to-detect_water_body_normalized_difference_rasters" style="stroke:#181818;stroke-width:1;stroke-dasharray:7,7;"/><polygon fill="#181818" points="370.5,448.93,374.5,439.93,370.5,443.93,366.5,439.93,370.5,448.93" style="stroke:#181818;stroke-width:1;"/></g><!--link detect_water_body_normalized_difference_ndwi to detect_water_body_otsu_raster--><g class="link" data-entity-1="detect_water_body_normalized_difference_ndwi" data-entity-2="detect_water_body_otsu_raster" data-source-line="97" data-uid="lnk28" id="link_detect_water_body_normalized_difference_ndwi_detect_water_body_otsu_raster"><path d="M199,645.04 C199,660.39 199,694.78 199,710.56" fill="none" id="detect_water_body_normalized_difference_ndwi-to-detect_water_body_otsu_raster" style="stroke:#181818;stroke-width:1;stroke-dasharray:7,7;"/><polygon fill="#181818" points="199,716.56,203,707.56,199,711.56,195,707.56,199,716.56" style="stroke:#181818;stroke-width:1;"/></g><!--reverse link detect_water_body_detected_water_body to detect_water_body_otsu_binary_mask_item--><g class="link" data-entity-1="detect_water_body_detected_water_body" data-entity-2="detect_water_body_otsu_binary_mask_item" data-source-line="114" data-uid="lnk32" id="link_detect_water_body_detected_water_body_detect_water_body_otsu_binary_mask_item"><path d="M54.5,258.12 C54.5,268.47 54.5,925 54.5,925 C54.5,925 126.76,925 149.34,925" fill="none" id="detect_water_body_detected_water_body-backto-detect_water_body_otsu_binary_mask_item" style="stroke:#181818;stroke-width:1;stroke-dasharray:7,7;"/><polygon fill="#181818" points="54.5,252.12,50.5,261.12,54.5,257.12,58.5,261.12,54.5,252.12" style="stroke:#181818;stroke-width:1;"/></g><!--reverse link detect_water_body_ndwi to detect_water_body_normalized_difference_ndwi--><g class="link" data-entity-1="detect_water_body_ndwi" data-entity-2="detect_water_body_normalized_difference_ndwi" data-source-line="120" data-uid="lnk34" id="link_detect_water_body_ndwi_detect_water_body_normalized_difference_ndwi"><path d="M219.1,252 C223.25,252 222,252 222,252 C222,252 222,637 222,637 C222,637 212.09,637 205.28,637" fill="none" id="detect_water_body_ndwi-backto-detect_water_body_normalized_difference_ndwi" style="stroke:#181818;stroke-width:1;stroke-dasharray:7,7;"/><polygon fill="#181818" points="213.1,252,222.1,256,218.1,252,222.1,248,213.1,252" style="stroke:#181818;stroke-width:1;"/></g><!--SRC=[fLN1RgCm4Btp5ICkEPMojAdQ77hQJrYfH-HW9xK2jcKxYzAg_ruFIaX8R4C4XmIOUVEUvtdCuoA11VpbPAj90ricc2QMKLWVe6hhGksR6lxdsTCoop7HyeOPIngrWY8lNXxofuSY_rVyMHMlg-LpLhmjNTPZaYHcnuKYMBFcWjc3OY2r_PG9Na9I1kc7rBjDBLjOK6PPPSlMCUjoBUbXaS9t0kwgPAEaOC92UfEK0Z5my_O8x7xmKewM2qY9v7v0wI9-25Dc6y1Wo0zQ4q5D0DN5_31kMHD0OUWC6Y3blcyCewEjAJsPWPg2jg5sOUYC-d5sul_6MUqyhRHK0Ho6GkP4Le-mSmi6w9k7mGj_8o6ZiXNP-oIcGRrxjrLNxhItPkbsHSPaN_9CK1tPsLsvVdlFqerLneGFc2Oenn6AASVuVENTe8v97r1vf0T62x6AHHTnJBaeStKMzcE6DwSvl1X38NL3QlxbHftopOPf9YeMccTVRcXGDJ4EQEufLHunyrsvx4t4d6agfXiMEmkzLESJqkSTOhhihcR_v75HMhCF46Cexb44UEp5V4F2ou_OurCmtOmr5qGVoeQONHdvQdGarxbXJ_fEuyt9YPyh3KEr4paXsojl6qBVuf5pS4n4p9A04Wp-0W00]--></g></svg>