<svg xmlns="http://www.w3.org/2000/svg" xmlns:xlink="http://www.w3.org/1999/xlink" contentStyleType="text/css" data-diagram-type="STATE" height="1018px" preserveAspectRatio="none" style="width:248px;height:1018px;background:#FFFFFF;" version="1.1" viewBox="0 0 248 1018" width="248px" zoomAndPan="magnify"><defs/><g><!--cluster detect_water_body--><g class="cluster" data-entity="detect_water_body" data-source-line="12" data-uid="ent0002" id="cluster_detect_water_body"><path d="M19.5,104 L222.5,104 A12.5,12.5 0 0 1 235,116.5 L235,125.2969 L7,125.2969 L7,116.5 A12.5,12.5 0 0 1 19.5,104" fill="#F1F1F1"/><rect fill="none" height="808.44" rx="12.5" ry="12.5" style="stroke:#181818;stroke-width:0.5;" width="228" x="7" y="104"/><line style="stroke:#181818;stroke-width:0.5;" x1="7" x2="235" y1="125.2969" y2="125.2969"/><text fill="#000000" font-family="sans-serif" font-size="14" lengthAdjust="spacing" textLength="133.3008" x="54.3496" y="121.9951">detect_water_body</text></g><!--cluster crop--><g class="cluster" data-entity="crop" data-source-line="37" data-uid="ent0007" id="cluster_crop"><path d="M58.5,190 L210.5,190 A12.5,12.5 0 0 1 223,202.5 L223,211.2969 L46,211.2969 L46,202.5 A12.5,12.5 0 0 1 58.5,190" fill="#F1F1F1"/><rect fill="none" height="144.72" rx="12.5" ry="12.5" style="stroke:#181818;stroke-width:0.5;" width="177" x="46" y="190"/><line style="stroke:#181818;stroke-width:0.5;" x1="46" x2="223" y1="211.2969" y2="211.2969"/><text fill="#000000" font-family="sans-serif" font-size="14" lengthAdjust="spacing" textLength="30.9053" x="119.0474" y="207.9951">crop</text></g><!--cluster normalized_difference--><g class="cluster" data-entity="normalized_difference" data-source-line="85" data-uid="ent0013" id="cluster_normalized_difference"><path d="M40.5,430.72 L180.5,430.72 A12.5,12.5 0 0 1 193,443.22 L193,452.0169 L28,452.0169 L28,443.22 A12.5,12.5 0 0 1 40.5,430.72" fill="#F1F1F1"/><rect fill="none" height="144.72" rx="12.5" ry="12.5" style="stroke:#181818;stroke-width:0.5;" width="165" x="28" y="430.72"/><line style="stroke:#181818;stroke-width:0.5;" x1="28" x2="193" y1="452.0169" y2="452.0169"/><text fill="#000000" font-family="sans-serif" font-size="14" lengthAdjust="spacing" textLength="155.8389" x="32.5806" y="448.7151">normalized_difference</text></g><!--cluster otsu--><g class="cluster" data-entity="otsu" data-source-line="109" data-uid="ent0016" id="cluster_otsu"><path d="M53.5,659.44 L152.5,659.44 A12.5,12.5 0 0 1 165,671.94 L165,680.7369 L41,680.7369 L41,671.94 A12.5,12.5 0 0 1 53.5,659.44" fill="#F1F1F1"/><rect fill="none" height="157" rx="12.5" ry="12.5" style="stroke:#181818;stroke-width:0.5;" width="124" x="41" y="659.44"/><line style="stroke:#181818;stroke-width:0.5;" x1="41" x2="165" y1="680.7369" y2="680.7369"/><text fill="#000000" font-family="sans-serif" font-size="14" lengthAdjust="spacing" textLength="30.2217" x="87.8892" y="677.4351">otsu</text></g><text fill="#000000" font-family="sans-serif" font-size="14" lengthAdjust="spacing" textLength="21.0342" x="202.4829" y="82.6982">aoi</text><ellipse cx="213" cy="104" fill="#F1F1F1" rx="6" ry="6" style="stroke:#181818;stroke-width:1.5;"/><text fill="#000000" font-family="sans-serif" font-size="14" lengthAdjust="spacing" textLength="33.6807" x="149.1597" y="82.6982">epsg</text><ellipse cx="166" cy="104" fill="#F1F1F1" rx="6" ry="6" style="stroke:#181818;stroke-width:1.5;"/><text fill="#000000" font-family="sans-serif" font-size="14" lengthAdjust="spacing" textLength="42.5195" x="76.7402" y="82.6982">bands</text><ellipse cx="98" cy="104" fill="#F1F1F1" rx="6" ry="6" style="stroke:#181818;stroke-width:1.5;"/><text fill="#000000" font-family="sans-serif" font-size="14" lengthAdjust="spacing" textLength="31.6299" x="14.1851" y="82.6982">item</text><ellipse cx="30" cy="104" fill="#F1F1F1" rx="6" ry="6" style="stroke:#181818;stroke-width:1.5;"/><text fill="#000000" font-family="sans-serif" font-size="14" lengthAdjust="spacing" textLength="150.8008" x="42.5996" y="931.4351">detected_water_body</text><ellipse cx="118" cy="912.44" fill="#F1F1F1" rx="6" ry="6" style="stroke:#181818;stroke-width:1.5;"/><line style="stroke:#181818;stroke-width:1.5;" x1="122.3891" x2="114.6109" y1="916.8291" y2="909.0509"/><line style="stroke:#181818;stroke-width:1.5;" x1="122.3891" x2="114.6109" y1="909.0509" y2="916.8291"/><text fill="#000000" font-family="sans-serif" font-size="14" lengthAdjust="spacing" textLength="33.0996" x="193.4502" y="931.4351">ndwi</text><ellipse cx="210" cy="912.44" fill="#F1F1F1" rx="6" ry="6" style="stroke:#181818;stroke-width:1.5;"/><line style="stroke:#181818;stroke-width:1.5;" x1="214.3891" x2="206.6109" y1="916.8291" y2="909.0509"/><line style="stroke:#181818;stroke-width:1.5;" x1="214.3891" x2="206.6109" y1="909.0509" y2="916.8291"/><text fill="#000000" font-family="sans-serif" font-size="14" lengthAdjust="spacing" textLength="31.6299" x="48.1851" y="168.6982">item</text><ellipse cx="64" cy="190" fill="#F1F1F1" rx="6" ry="6" style="stroke:#181818;stroke-width:1.5;"/><text fill="#000000" font-family="sans-serif" font-size="14" lengthAdjust="spacing" textLength="21.0342" x="194.4829" y="168.6982">aoi</text><ellipse cx="205" cy="190" fill="#F1F1F1" rx="6" ry="6" style="stroke:#181818;stroke-width:1.5;"/><text fill="#000000" font-family="sans-serif" font-size="14" lengthAdjust="spacing" textLength="33.6807" x="141.1597" y="168.6982">epsg</text><ellipse cx="158" cy="190" fill="#F1F1F1" rx="6" ry="6" style="stroke:#181818;stroke-width:1.5;"/><text fill="#000000" font-family="sans-serif" font-size="14" lengthAdjust="spacing" textLength="35.2256" x="93.3872" y="168.6982">band</text><ellipse cx="111" cy="190" fill="#F1F1F1" rx="6" ry="6" style="stroke:#181818;stroke-width:1.5;"/><text fill="#000000" font-family="sans-serif" font-size="14" lengthAdjust="spacing" textLength="57.292" x="103.854" y="353.7151">cropped</text><ellipse cx="132.5" cy="334.72" fill="#F1F1F1" rx="6" ry="6" style="stroke:#181818;stroke-width:1.5;"/><line style="stroke:#181818;stroke-width:1.5;" x1="136.8891" x2="129.1109" y1="339.1091" y2="331.3309"/><line style="stroke:#181818;stroke-width:1.5;" x1="136.8891" x2="129.1109" y1="331.3309" y2="339.1091"/><text fill="#000000" font-family="sans-serif" font-size="14" lengthAdjust="spacing" textLength="48.7813" x="108.6094" y="409.4182">rasters</text><ellipse cx="133" cy="430.72" fill="#F1F1F1" rx="6" ry="6" style="stroke:#181818;stroke-width:1.5;"/><text fill="#000000" font-family="sans-serif" font-size="14" lengthAdjust="spacing" textLength="33.0996" x="157.4502" y="594.4351">ndwi</text><ellipse cx="174" cy="575.44" fill="#F1F1F1" rx="6" ry="6" style="stroke:#181818;stroke-width:1.5;"/><line style="stroke:#181818;stroke-width:1.5;" x1="178.3891" x2="170.6109" y1="579.8291" y2="572.0509"/><line style="stroke:#181818;stroke-width:1.5;" x1="178.3891" x2="170.6109" y1="572.0509" y2="579.8291"/><text fill="#000000" font-family="sans-serif" font-size="14" lengthAdjust="spacing" textLength="41.4873" x="126.2563" y="638.1382">raster</text><ellipse cx="147" cy="659.44" fill="#F1F1F1" rx="6" ry="6" style="stroke:#181818;stroke-width:1.5;"/><text fill="#000000" font-family="sans-serif" font-size="14" lengthAdjust="spacing" textLength="127.5176" x="53.7412" y="835.4351">binary_mask_item</text><ellipse cx="117.5" cy="816.44" fill="#F1F1F1" rx="6" ry="6" style="stroke:#181818;stroke-width:1.5;"/><line style="stroke:#181818;stroke-width:1.5;" x1="121.8891" x2="114.1109" y1="820.8291" y2="813.0509"/><line style="stroke:#181818;stroke-width:1.5;" x1="121.8891" x2="114.1109" y1="813.0509" y2="820.8291"/><ellipse cx="132" cy="16" fill="#222222" rx="10" ry="10" style="stroke:#222222;stroke-width:1;"/><ellipse cx="164" cy="1001.44" fill="none" rx="11" ry="11" style="stroke:#222222;stroke-width:1;"/><ellipse cx="164" cy="1001.44" fill="#222222" rx="6" ry="6" style="stroke:#222222;stroke-width:1;"/><!--link detect_water_body_item to crop_item--><g class="link" data-entity-1="detect_water_body_item" data-entity-2="crop_item" data-source-line="43" data-uid="lnk2" id="link_detect_water_body_item_crop_item"><path d="M36.19,109.63 C41.79,114.17 49.78,121.62 54,130 C63.16,148.19 64.1669,167.11 64.1369,177.79" fill="none" id="detect_water_body_item-to-crop_item" style="stroke:#181818;stroke-width:1;"/><polygon fill="#181818" points="64.12,183.79,68.1453,174.8013,64.134,178.79,60.1453,174.7788,64.12,183.79" style="stroke:#181818;stroke-width:1;"/></g><!--link detect_water_body_aoi to crop_aoi--><g class="link" data-entity-1="detect_water_body_aoi" data-entity-2="crop_aoi" data-source-line="51" data-uid="lnk3" id="link_detect_water_body_aoi_crop_aoi"><path d="M212.52,110 C211.11,124.84 207.5194,162.5171 206.0694,177.7271" fill="none" id="detect_water_body_aoi-to-crop_aoi" style="stroke:#181818;stroke-width:1;"/><polygon fill="#181818" points="205.5,183.7,210.3361,175.1202,205.9745,178.7226,202.3722,174.361,205.5,183.7" style="stroke:#181818;stroke-width:1;"/></g><!--link detect_water_body_epsg to crop_epsg--><g class="link" data-entity-1="detect_water_body_epsg" data-entity-2="crop_epsg" data-source-line="59" data-uid="lnk4" id="link_detect_water_body_epsg_crop_epsg"><path d="M165.52,110 C164.11,124.84 160.5194,162.5171 159.0694,177.7271" fill="none" id="detect_water_body_epsg-to-crop_epsg" style="stroke:#181818;stroke-width:1;"/><polygon fill="#181818" points="158.5,183.7,163.3361,175.1202,158.9745,178.7226,155.3722,174.361,158.5,183.7" style="stroke:#181818;stroke-width:1;"/></g><!--link detect_water_body_bands to crop_band--><g class="link" data-entity-1="detect_water_body_bands" data-entity-2="crop_band" data-source-line="67" data-uid="lnk5" id="link_detect_water_body_bands_crop_band"><path d="M98.77,110 C101.07,124.84 106.9138,162.5604 109.2638,177.7704" fill="none" id="detect_water_body_bands-to-crop_band" style="stroke:#181818;stroke-width:1;"/><polygon fill="#181818" points="110.18,183.7,112.7589,174.1948,109.4165,178.7586,104.8527,175.4163,110.18,183.7" style="stroke:#181818;stroke-width:1;"/></g><!--link crop_cropped to normalized_difference_rasters--><g class="link" data-entity-1="crop_cropped" data-entity-2="normalized_difference_rasters" data-source-line="91" data-uid="lnk6" id="link_crop_cropped_normalized_difference_rasters"><path d="M133,340.77 C133,357.1 133,402.28 133,418.64" fill="none" id="crop_cropped-to-normalized_difference_rasters" style="stroke:#181818;stroke-width:1;"/><polygon fill="#181818" points="133,424.64,137,415.64,133,419.64,129,415.64,133,424.64" style="stroke:#181818;stroke-width:1;"/></g><!--link normalized_difference_ndwi to otsu_raster--><g class="link" data-entity-1="normalized_difference_ndwi" data-entity-2="otsu_raster" data-source-line="115" data-uid="lnk7" id="link_normalized_difference_ndwi_otsu_raster"><path d="M172.23,581.82 C167.3,596.79 155.3574,633.0613 150.5474,647.6613" fill="none" id="normalized_difference_ndwi-to-otsu_raster" style="stroke:#181818;stroke-width:1;"/><polygon fill="#181818" points="148.67,653.36,155.2853,646.0636,150.2345,648.6111,147.687,643.5603,148.67,653.36" style="stroke:#181818;stroke-width:1;"/></g><!--link otsu_binary_mask_item to detect_water_body_detected_water_body--><g class="link" data-entity-1="otsu_binary_mask_item" data-entity-2="detect_water_body_detected_water_body" data-source-line="131" data-uid="lnk8" id="link_otsu_binary_mask_item_detect_water_body_detected_water_body"><path d="M118,822.49 C118,838.82 118,884 118,900.36" fill="none" id="otsu_binary_mask_item-to-detect_water_body_detected_water_body" style="stroke:#181818;stroke-width:1;"/><polygon fill="#181818" points="118,906.36,122,897.36,118,901.36,114,897.36,118,906.36" style="stroke:#181818;stroke-width:1;"/></g><!--link normalized_difference_ndwi to detect_water_body_ndwi--><g class="link" data-entity-1="normalized_difference_ndwi" data-entity-2="detect_water_body_ndwi" data-source-line="136" data-uid="lnk9" id="link_normalized_difference_ndwi_detect_water_body_ndwi"><path d="M178.77,581.89 C184.55,588.88 194.01,601.63 198,614.44 C233.29,727.76 215.6846,871.2483 211.5846,900.4383" fill="none" id="normalized_difference_ndwi-to-detect_water_body_ndwi" style="stroke:#181818;stroke-width:1;"/><polygon fill="#181818" points="210.75,906.38,215.963,898.0239,211.4455,901.4286,208.0407,896.9111,210.75,906.38" style="stroke:#181818;stroke-width:1;"/></g><!--link *start* to detect_water_body_aoi--><g class="link" data-entity-1=".start." data-entity-2="detect_water_body_aoi" data-source-line="141" data-uid="lnk11" id="link_.start._detect_water_body_aoi"><path d="M138.47,23.74 C149.23,34.94 171.43,58.15 190,78 C196.45,84.89 199.7787,88.4951 204.3987,93.5651" fill="none" id="*start*-to-detect_water_body_aoi" style="stroke:#181818;stroke-width:1;"/><polygon fill="#181818" points="208.44,98,205.3347,88.6535,205.0723,94.3043,199.4215,94.0418,208.44,98" style="stroke:#181818;stroke-width:1;"/></g><!--link *start* to detect_water_body_epsg--><g class="link" data-entity-1=".start." data-entity-2="detect_water_body_epsg" data-source-line="143" data-uid="lnk12" id="link_.start._detect_water_body_epsg"><path d="M135.38,25.56 C142.37,43.23 156.0164,77.7293 161.7064,92.1393" fill="none" id="*start*-to-detect_water_body_epsg" style="stroke:#181818;stroke-width:1;"/><polygon fill="#181818" points="163.91,97.72,164.325,87.8799,162.0737,93.0694,156.8841,90.818,163.91,97.72" style="stroke:#181818;stroke-width:1;"/></g><!--link *start* to detect_water_body_bands--><g class="link" data-entity-1=".start." data-entity-2="detect_water_body_bands" data-source-line="145" data-uid="lnk13" id="link_.start._detect_water_body_bands"><path d="M128.62,25.56 C121.63,43.23 107.9836,77.7293 102.2936,92.1393" fill="none" id="*start*-to-detect_water_body_bands" style="stroke:#181818;stroke-width:1;"/><polygon fill="#181818" points="100.09,97.72,107.1159,90.818,101.9263,93.0694,99.675,87.8799,100.09,97.72" style="stroke:#181818;stroke-width:1;"/></g><!--link *start* to detect_water_body_item--><g class="link" data-entity-1=".start." data-entity-2="detect_water_body_item" data-source-line="147" data-uid="lnk14" id="link_.start._detect_water_body_item"><path d="M123.95,22.71 C109.46,33.11 78.24,56.1 54,78 C46.86,84.45 43.2885,88.1545 38.5985,93.3545" fill="none" id="*start*-to-detect_water_body_item" style="stroke:#181818;stroke-width:1;"/><polygon fill="#181818" points="34.58,97.81,43.5781,93.8058,37.9288,94.0971,37.6374,88.4477,34.58,97.81" style="stroke:#181818;stroke-width:1;"/></g><!--link detect_water_body_detected_water_body to *end*--><g class="link" data-entity-1="detect_water_body_detected_water_body" data-entity-2=".end." data-source-line="151" data-uid="lnk16" id="link_detect_water_body_detected_water_body_.end."><path d="M120.74,918.62 C128.32,932.96 146.8468,967.9951 156.4268,986.1251" fill="none" id="detect_water_body_detected_water_body-to-*end*" style="stroke:#181818;stroke-width:1;"/><polygon fill="#181818" points="159.23,991.43,158.5619,981.6038,156.894,987.0092,151.4886,985.3414,159.23,991.43" style="stroke:#181818;stroke-width:1;"/></g><!--link detect_water_body_ndwi to *end*--><g class="link" data-entity-1="detect_water_body_ndwi" data-entity-2=".end." data-source-line="153" data-uid="lnk17" id="link_detect_water_body_ndwi_.end."><path d="M207.26,918.62 C199.68,932.96 181.1532,967.9951 171.5732,986.1251" fill="none" id="detect_water_body_ndwi-to-*end*" style="stroke:#181818;stroke-width:1;"/><polygon fill="#181818" points="168.77,991.43,176.5114,985.3414,171.106,987.0092,169.4381,981.6038,168.77,991.43" style="stroke:#181818;stroke-width:1;"/></g><!--SRC=[nLRVIyCm47xlNn5y4OHjjMD3X-p9Fy07tqHArfmpkAObpPnL_D_DPQLhkoQT4hMCGNBVVPVlxl9ZSXwGStBBwLhIbAn1WAGA65cL9DbjedoRRiXhE9xEnY425K-XK3JD5oGAe_aed8wYy3wwN4HNYzbyV3sVQjGa29uv0m9fhah2e4WapnNFH60-xQ-0d35GaAXufmSoNcMiF2Eq84Upv2CW-ZD_bIVDU3ysrXPoSmD2oV8kuq8jbqVEa1ThYpUQXjnNLB32ucziGmHSGMhnHrElUu2_pcUV-3DBGrOYixogL0lJ5OqugqwdFFl2B8aSZPQ7SCDqTlvErnbEIwDvKu3yjG0zyB3-kl4DfwtNlIam0Me9EFAW0NVOGGEEVbN3VaFN8d3u4n5MESYQGqDHDO6YthZgQjeJVRRf_1mCZQqiCfdI3Ny75ZF-z0GIH0AElIrfeHEsFnDxVUCAuR5KhMHXVPo1lTPCi1rtQ4NplvOlKyLsi5f602Ah57aiZICjMAX6KAzbMN51PHcdj7Y9wzl61EjQlbMTmx3rQj7YXjujSG_I4hgEqRzUJDj9z8wyTPltcC_Hk3NBG6txIHshQcJxuUBHmj6y_HomrWtZm9ap_HHWwzdGQ8JJAesScjlbLkTDuxu0]--></g></svg>