<svg xmlns="http://www.w3.org/2000/svg" xmlns:xlink="http://www.w3.org/1999/xlink" contentStyleType="text/css" data-diagram-type="ACTIVITY" height="1164px" preserveAspectRatio="none" style="width:1671px;height:1164px;background:#FFFFFF;" version="1.1" viewBox="0 0 1671 1164" width="1671px" zoomAndPan="magnify"><defs/><g><ellipse cx="825.6963" cy="20" fill="#222222" rx="10" ry="10" style="stroke:#222222;stroke-width:1;"/><line style="stroke:#181818;stroke-width:1.5;" x1="84.2109" x2="1539.6943" y1="50" y2="50"/><polygon fill="#F1F1F1" points="20,70,158.4219,70,148.4219,86.9844,158.4219,103.9688,20,103.9688" style="stroke:#181818;stroke-width:0.5;"/><text fill="#000000" font-family="sans-serif" font-size="12" lengthAdjust="spacing" textLength="108.4219" x="30" y="91.1387">stac_api_endpoint</text><polygon fill="#F1F1F1" points="168.4219,70,255.9961,70,245.9961,86.9844,255.9961,103.9688,168.4219,103.9688" style="stroke:#181818;stroke-width:0.5;"/><text fill="#000000" font-family="sans-serif" font-size="12" lengthAdjust="spacing" textLength="57.5742" x="178.4219" y="91.1387">collection</text><polygon fill="#F1F1F1" points="265.9961,70,325.6738,70,315.6738,86.9844,325.6738,103.9688,265.9961,103.9688" style="stroke:#181818;stroke-width:0.5;"/><text fill="#000000" font-family="sans-serif" font-size="12" lengthAdjust="spacing" textLength="29.6777" x="275.9961" y="91.1387">bbox</text><polygon fill="#F1F1F1" points="335.6738,70,452.123,70,442.123,86.9844,452.123,103.9688,335.6738,103.9688" style="stroke:#181818;stroke-width:0.5;"/><text fill="#000000" font-family="sans-serif" font-size="12" lengthAdjust="spacing" textLength="86.4492" x="345.6738" y="91.1387">start-datetime</text><polygon fill="#F1F1F1" points="462.123,70,573.2285,70,563.2285,86.9844,573.2285,103.9688,462.123,103.9688" style="stroke:#181818;stroke-width:0.5;"/><text fill="#000000" font-family="sans-serif" font-size="12" lengthAdjust="spacing" textLength="81.1055" x="472.123" y="91.1387">end-datetime</text><polygon fill="#F1F1F1" points="601.2285,70,657.625,70,647.625,86.9844,657.625,103.9688,601.2285,103.9688" style="stroke:#181818;stroke-width:0.5;"/><text fill="#000000" font-family="sans-serif" font-size="12" lengthAdjust="spacing" textLength="26.3965" x="611.2285" y="91.1387">limit</text><polygon fill="#F1F1F1" points="685.625,70,779.4629,70,769.4629,86.9844,779.4629,103.9688,685.625,103.9688" style="stroke:#181818;stroke-width:0.5;"/><text fill="#000000" font-family="sans-serif" font-size="12" lengthAdjust="spacing" textLength="63.8379" x="695.625" y="91.1387">max-items</text><polygon fill="#F1F1F1" points="807.4629,70,895.6172,70,885.6172,86.9844,895.6172,103.9688,807.4629,103.9688" style="stroke:#181818;stroke-width:0.5;"/><text fill="#000000" font-family="sans-serif" font-size="12" lengthAdjust="spacing" textLength="58.1543" x="817.4629" y="91.1387">filter-lang</text><polygon fill="#F1F1F1" points="923.6172,70,981.5313,70,971.5313,86.9844,981.5313,103.9688,923.6172,103.9688" style="stroke:#181818;stroke-width:0.5;"/><text fill="#000000" font-family="sans-serif" font-size="12" lengthAdjust="spacing" textLength="27.9141" x="933.6172" y="91.1387">filter</text><polygon fill="#F1F1F1" points="1009.5313,70,1075.9766,70,1065.9766,86.9844,1075.9766,103.9688,1009.5313,103.9688" style="stroke:#181818;stroke-width:0.5;"/><text fill="#000000" font-family="sans-serif" font-size="12" lengthAdjust="spacing" textLength="36.4453" x="1019.5313" y="91.1387">bands</text><polygon fill="#F1F1F1" points="1085.9766,70,1211.1563,70,1201.1563,86.9844,1211.1563,103.9688,1085.9766,103.9688" style="stroke:#181818;stroke-width:0.5;"/><text fill="#000000" font-family="sans-serif" font-size="12" lengthAdjust="spacing" textLength="95.1797" x="1095.9766" y="91.1387">overview_levels</text><polygon fill="#F1F1F1" points="1221.1563,70,1429.9961,70,1419.9961,86.9844,1429.9961,103.9688,1221.1563,103.9688" style="stroke:#181818;stroke-width:0.5;"/><text fill="#000000" font-family="sans-serif" font-size="12" lengthAdjust="spacing" textLength="178.8398" x="1231.1563" y="91.1387">continuous_overview_reducer</text><polygon fill="#F1F1F1" points="1439.9961,70,1649.3926,70,1639.3926,86.9844,1649.3926,103.9688,1439.9961,103.9688" style="stroke:#181818;stroke-width:0.5;"/><text fill="#000000" font-family="sans-serif" font-size="12" lengthAdjust="spacing" textLength="179.3965" x="1449.9961" y="91.1387">categorical_overview_reducer</text><line style="stroke:#181818;stroke-width:1.5;" x1="84.2109" x2="1539.6943" y1="123.9688" y2="123.9688"/><rect fill="#F1F1F1" height="47.9375" rx="12.5" ry="12.5" style="stroke:#181818;stroke-width:0.5;" width="231.6289" x="709.8818" y="143.9688"/><text fill="#000000" font-family="sans-serif" font-size="12" lengthAdjust="spacing" textLength="146.8359" x="719.8818" y="165.1074">step: build_api_endpoint</text><text fill="#000000" font-family="sans-serif" font-size="12" lengthAdjust="spacing" textLength="211.6289" x="719.8818" y="179.0762">ExpressionTool: build_api_endpoint</text><rect fill="#F1F1F1" height="47.9375" rx="12.5" ry="12.5" style="stroke:#181818;stroke-width:0.5;" width="246.1191" x="702.6367" y="211.9063"/><text fill="#000000" font-family="sans-serif" font-size="12" lengthAdjust="spacing" textLength="161.3262" x="712.6367" y="233.0449">step: build_search_request</text><text fill="#000000" font-family="sans-serif" font-size="12" lengthAdjust="spacing" textLength="226.1191" x="712.6367" y="247.0137">ExpressionTool: build_search_request</text><rect fill="#F1F1F1" height="47.9375" rx="12.5" ry="12.5" style="stroke:#181818;stroke-width:0.5;" width="202.0859" x="724.6533" y="279.8438"/><text fill="#000000" font-family="sans-serif" font-size="12" lengthAdjust="spacing" textLength="91.4766" x="734.6533" y="300.9824">step: discovery</text><text fill="#000000" font-family="sans-serif" font-size="12" lengthAdjust="spacing" textLength="182.0859" x="734.6533" y="314.9512">CommandLineTool: stac-client</text><rect fill="#F1F1F1" height="47.9375" rx="12.5" ry="12.5" style="stroke:#181818;stroke-width:0.5;" width="230.0117" x="710.6904" y="347.7813"/><text fill="#000000" font-family="sans-serif" font-size="12" lengthAdjust="spacing" textLength="125.6074" x="720.6904" y="368.9199">step: convert_search</text><text fill="#000000" font-family="sans-serif" font-size="12" lengthAdjust="spacing" textLength="210.0117" x="720.6904" y="382.8887">CommandLineTool: convert-search</text><rect fill="none" height="320.1094" style="stroke:#000000;stroke-width:1.5;" width="225.6191" x="717.2666" y="449.7188"/><path d="M860.5674,449.7188 L860.5674,459.0156 L850.5674,469.0156 L717.2666,469.0156" fill="none" style="stroke:#000000;stroke-width:1.5;"/><text fill="#000000" font-family="sans-serif" font-size="14" lengthAdjust="spacing" textLength="133.3008" x="720.2666" y="463.7139">detect_water_body</text><rect fill="#F1F1F1" height="47.9375" rx="12.5" ry="12.5" style="stroke:#181818;stroke-width:0.5;" width="166.3789" x="742.5068" y="530.0156"/><text fill="#000000" font-family="sans-serif" font-size="12" lengthAdjust="spacing" textLength="60.3047" x="752.5068" y="551.1543">step: crop</text><text fill="#000000" font-family="sans-serif" font-size="12" lengthAdjust="spacing" textLength="146.3789" x="752.5068" y="565.123">CommandLineTool: crop</text><polygon fill="#F1F1F1" points="825.6963,486.0156,837.6963,498.0156,825.6963,510.0156,813.6963,498.0156,825.6963,486.0156" style="stroke:#181818;stroke-width:0.5;"/><polygon fill="#F1F1F1" points="765.8274,597.9531,885.5652,597.9531,897.5652,609.9531,885.5652,621.9531,765.8274,621.9531,753.8274,609.9531,765.8274,597.9531" style="stroke:#181818;stroke-width:0.5;"/><text fill="#000000" font-family="sans-serif" font-size="11" lengthAdjust="spacing" textLength="119.7378" x="765.8274" y="613.7612">dotproduct crop/band</text><rect fill="#F1F1F1" height="47.9375" rx="12.5" ry="12.5" style="stroke:#181818;stroke-width:0.5;" width="196.8594" x="727.2666" y="641.9531"/><text fill="#000000" font-family="sans-serif" font-size="12" lengthAdjust="spacing" textLength="167.3906" x="737.2666" y="663.0918">step: normalized_difference</text><text fill="#000000" font-family="sans-serif" font-size="12" lengthAdjust="spacing" textLength="176.8594" x="737.2666" y="677.0605">CommandLineTool: norm_diff</text><rect fill="#F1F1F1" height="47.9375" rx="12.5" ry="12.5" style="stroke:#181818;stroke-width:0.5;" width="165.793" x="742.7998" y="709.8906"/><text fill="#000000" font-family="sans-serif" font-size="12" lengthAdjust="spacing" textLength="59.7188" x="752.7998" y="731.0293">step: otsu</text><text fill="#000000" font-family="sans-serif" font-size="12" lengthAdjust="spacing" textLength="145.793" x="752.7998" y="744.998">CommandLineTool: otsu</text><polygon fill="#F1F1F1" points="825.6963,415.7188,837.6963,427.7188,825.6963,439.7188,813.6963,427.7188,825.6963,415.7188" style="stroke:#181818;stroke-width:0.5;"/><polygon fill="#F1F1F1" points="742.8364,789.8281,908.5562,789.8281,920.5562,801.8281,908.5562,813.8281,742.8364,813.8281,730.8364,801.8281,742.8364,789.8281" style="stroke:#181818;stroke-width:0.5;"/><text fill="#000000" font-family="sans-serif" font-size="11" lengthAdjust="spacing" textLength="165.7197" x="742.8364" y="805.6362">dotproduct water_bodies/item</text><rect fill="#F1F1F1" height="47.9375" rx="12.5" ry="12.5" style="stroke:#181818;stroke-width:0.5;" width="226.7012" x="712.3457" y="833.8281"/><text fill="#000000" font-family="sans-serif" font-size="12" lengthAdjust="spacing" textLength="120.627" x="722.3457" y="854.9668">step: stac-collection</text><text fill="#000000" font-family="sans-serif" font-size="12" lengthAdjust="spacing" textLength="206.7012" x="722.3457" y="868.9355">CommandLineTool: stac-collection</text><rect fill="#F1F1F1" height="47.9375" rx="12.5" ry="12.5" style="stroke:#181818;stroke-width:0.5;" width="246.4414" x="702.4756" y="901.7656"/><text fill="#000000" font-family="sans-serif" font-size="12" lengthAdjust="spacing" textLength="143.707" x="712.4756" y="922.9043">step: stac_eopf_product</text><text fill="#000000" font-family="sans-serif" font-size="12" lengthAdjust="spacing" textLength="226.4414" x="712.4756" y="936.873">CommandLineTool: stac-eopf-product</text><rect fill="#F1F1F1" height="47.9375" rx="12.5" ry="12.5" style="stroke:#181818;stroke-width:0.5;" width="192.6465" x="729.373" y="969.7031"/><text fill="#000000" font-family="sans-serif" font-size="12" lengthAdjust="spacing" textLength="88.2422" x="739.373" y="990.8418">step: stac_zarr</text><text fill="#000000" font-family="sans-serif" font-size="12" lengthAdjust="spacing" textLength="172.6465" x="739.373" y="1004.8105">CommandLineTool: stac-zarr</text><line style="stroke:#181818;stroke-width:1.5;" x1="644.9932" x2="968.667" y1="1037.6406" y2="1037.6406"/><polygon fill="#F1F1F1" points="582.6279,1057.6406,707.3584,1057.6406,717.3584,1074.625,707.3584,1091.6094,582.6279,1091.6094" style="stroke:#181818;stroke-width:0.5;"/><text fill="#000000" font-family="sans-serif" font-size="12" lengthAdjust="spacing" textLength="104.7305" x="592.6279" y="1078.7793">zarr_stac_catalog</text><polygon fill="#F1F1F1" points="745.3584,1057.6406,840.5693,1057.6406,850.5693,1074.625,840.5693,1091.6094,745.3584,1091.6094" style="stroke:#181818;stroke-width:0.5;"/><text fill="#000000" font-family="sans-serif" font-size="12" lengthAdjust="spacing" textLength="75.2109" x="755.3584" y="1078.7793">stac_catalog</text><polygon fill="#F1F1F1" points="878.5693,1057.6406,1058.7646,1057.6406,1068.7646,1074.625,1058.7646,1091.6094,878.5693,1091.6094" style="stroke:#181818;stroke-width:0.5;"/><text fill="#000000" font-family="sans-serif" font-size="12" lengthAdjust="spacing" textLength="160.1953" x="888.5693" y="1078.7793">eopf_product_stac_catalog</text><line style="stroke:#181818;stroke-width:1.5;" x1="644.9932" x2="968.667" y1="1111.6094" y2="1111.6094"/><ellipse cx="825.6963" cy="1142.6094" fill="none" rx="11" ry="11" style="stroke:#222222;stroke-width:1;"/><ellipse cx="825.6963" cy="1142.6094" fill="#222222" rx="6" ry="6" style="stroke:#222222;stroke-width:1;"/><line style="stroke:#181818;stroke-width:1;" x1="84.2109" x2="84.2109" y1="51.5" y2="70"/><polygon fill="#181818" points="80.2109,60,84.2109,70,88.2109,60,84.2109,64" style="stroke:#181818;stroke-width:1;"/><line style="stroke:#181818;stroke-width:1;" x1="207.209" x2="207.209" y1="51.5" y2="70"/><polygon fill="#181818" points="203.209,60,207.209,70,211.209,60,207.209,64" style="stroke:#181818;stroke-width:1;"/><line style="stroke:#181818;stroke-width:1;" x1="290.835" x2="290.835" y1="51.5" y2="70"/><polygon fill="#181818" points="286.835,60,290.835,70,294.835,60,290.835,64" style="stroke:#181818;stroke-width:1;"/><line style="stroke:#181818;stroke-width:1;" x1="388.8984" x2="388.8984" y1="51.5" y2="70"/><polygon fill="#181818" points="384.8984,60,388.8984,70,392.8984,60,388.8984,64" style="stroke:#181818;stroke-width:1;"/><line style="stroke:#181818;stroke-width:1;" x1="512.6758" x2="512.6758" y1="51.5" y2="70"/><polygon fill="#181818" points="508.6758,60,512.6758,70,516.6758,60,512.6758,64" style="stroke:#181818;stroke-width:1;"/><line style="stroke:#181818;stroke-width:1;" x1="624.4268" x2="624.4268" y1="51.5" y2="70"/><polygon fill="#181818" points="620.4268,60,624.4268,70,628.4268,60,624.4268,64" style="stroke:#181818;stroke-width:1;"/><line style="stroke:#181818;stroke-width:1;" x1="727.5439" x2="727.5439" y1="51.5" y2="70"/><polygon fill="#181818" points="723.5439,60,727.5439,70,731.5439,60,727.5439,64" style="stroke:#181818;stroke-width:1;"/><line style="stroke:#181818;stroke-width:1;" x1="846.54" x2="846.54" y1="51.5" y2="70"/><polygon fill="#181818" points="842.54,60,846.54,70,850.54,60,846.54,64" style="stroke:#181818;stroke-width:1;"/><line style="stroke:#181818;stroke-width:1;" x1="947.5742" x2="947.5742" y1="51.5" y2="70"/><polygon fill="#181818" points="943.5742,60,947.5742,70,951.5742,60,947.5742,64" style="stroke:#181818;stroke-width:1;"/><line style="stroke:#181818;stroke-width:1;" x1="1037.7539" x2="1037.7539" y1="51.5" y2="70"/><polygon fill="#181818" points="1033.7539,60,1037.7539,70,1041.7539,60,1037.7539,64" style="stroke:#181818;stroke-width:1;"/><line style="stroke:#181818;stroke-width:1;" x1="1143.5664" x2="1143.5664" y1="51.5" y2="70"/><polygon fill="#181818" points="1139.5664,60,1143.5664,70,1147.5664,60,1143.5664,64" style="stroke:#181818;stroke-width:1;"/><line style="stroke:#181818;stroke-width:1;" x1="1320.5762" x2="1320.5762" y1="51.5" y2="70"/><polygon fill="#181818" points="1316.5762,60,1320.5762,70,1324.5762,60,1320.5762,64" style="stroke:#181818;stroke-width:1;"/><line style="stroke:#181818;stroke-width:1;" x1="1539.6943" x2="1539.6943" y1="51.5" y2="70"/><polygon fill="#181818" points="1535.6943,60,1539.6943,70,1543.6943,60,1539.6943,64" style="stroke:#181818;stroke-width:1;"/><line style="stroke:#181818;stroke-width:1;" x1="84.2109" x2="84.2109" y1="103.9688" y2="123.9688"/><polygon fill="#181818" points="80.2109,113.9688,84.2109,123.9688,88.2109,113.9688,84.2109,117.9688" style="stroke:#181818;stroke-width:1;"/><line style="stroke:#181818;stroke-width:1;" x1="207.209" x2="207.209" y1="103.9688" y2="123.9688"/><polygon fill="#181818" points="203.209,113.9688,207.209,123.9688,211.209,113.9688,207.209,117.9688" style="stroke:#181818;stroke-width:1;"/><line style="stroke:#181818;stroke-width:1;" x1="290.835" x2="290.835" y1="103.9688" y2="123.9688"/><polygon fill="#181818" points="286.835,113.9688,290.835,123.9688,294.835,113.9688,290.835,117.9688" style="stroke:#181818;stroke-width:1;"/><line style="stroke:#181818;stroke-width:1;" x1="388.8984" x2="388.8984" y1="103.9688" y2="123.9688"/><polygon fill="#181818" points="384.8984,113.9688,388.8984,123.9688,392.8984,113.9688,388.8984,117.9688" style="stroke:#181818;stroke-width:1;"/><line style="stroke:#181818;stroke-width:1;" x1="512.6758" x2="512.6758" y1="103.9688" y2="123.9688"/><polygon fill="#181818" points="508.6758,113.9688,512.6758,123.9688,516.6758,113.9688,512.6758,117.9688" style="stroke:#181818;stroke-width:1;"/><line style="stroke:#181818;stroke-width:1;" x1="624.4268" x2="624.4268" y1="103.9688" y2="123.9688"/><polygon fill="#181818" points="620.4268,113.9688,624.4268,123.9688,628.4268,113.9688,624.4268,117.9688" style="stroke:#181818;stroke-width:1;"/><line style="stroke:#181818;stroke-width:1;" x1="727.5439" x2="727.5439" y1="103.9688" y2="123.9688"/><polygon fill="#181818" points="723.5439,113.9688,727.5439,123.9688,731.5439,113.9688,727.5439,117.9688" style="stroke:#181818;stroke-width:1;"/><line style="stroke:#181818;stroke-width:1;" x1="846.54" x2="846.54" y1="103.9688" y2="123.9688"/><polygon fill="#181818" points="842.54,113.9688,846.54,123.9688,850.54,113.9688,846.54,117.9688" style="stroke:#181818;stroke-width:1;"/><line style="stroke:#181818;stroke-width:1;" x1="947.5742" x2="947.5742" y1="103.9688" y2="123.9688"/><polygon fill="#181818" points="943.5742,113.9688,947.5742,123.9688,951.5742,113.9688,947.5742,117.9688" style="stroke:#181818;stroke-width:1;"/><line style="stroke:#181818;stroke-width:1;" x1="1037.7539" x2="1037.7539" y1="103.9688" y2="123.9688"/><polygon fill="#181818" points="1033.7539,113.9688,1037.7539,123.9688,1041.7539,113.9688,1037.7539,117.9688" style="stroke:#181818;stroke-width:1;"/><line style="stroke:#181818;stroke-width:1;" x1="1143.5664" x2="1143.5664" y1="103.9688" y2="123.9688"/><polygon fill="#181818" points="1139.5664,113.9688,1143.5664,123.9688,1147.5664,113.9688,1143.5664,117.9688" style="stroke:#181818;stroke-width:1;"/><line style="stroke:#181818;stroke-width:1;" x1="1320.5762" x2="1320.5762" y1="103.9688" y2="123.9688"/><polygon fill="#181818" points="1316.5762,113.9688,1320.5762,123.9688,1324.5762,113.9688,1320.5762,117.9688" style="stroke:#181818;stroke-width:1;"/><line style="stroke:#181818;stroke-width:1;" x1="1539.6943" x2="1539.6943" y1="103.9688" y2="123.9688"/><polygon fill="#181818" points="1535.6943,113.9688,1539.6943,123.9688,1543.6943,113.9688,1539.6943,117.9688" style="stroke:#181818;stroke-width:1;"/><line style="stroke:#181818;stroke-width:1;" x1="825.6963" x2="825.6963" y1="30" y2="50"/><polygon fill="#181818" points="821.6963,40,825.6963,50,829.6963,40,825.6963,44" style="stroke:#181818;stroke-width:1;"/><line style="stroke:#181818;stroke-width:1;" x1="825.6963" x2="825.6963" y1="125.4688" y2="143.9688"/><polygon fill="#181818" points="821.6963,133.9688,825.6963,143.9688,829.6963,133.9688,825.6963,137.9688" style="stroke:#181818;stroke-width:1;"/><line style="stroke:#181818;stroke-width:1;" x1="825.6963" x2="825.6963" y1="191.9063" y2="211.9063"/><polygon fill="#181818" points="821.6963,201.9063,825.6963,211.9063,829.6963,201.9063,825.6963,205.9063" style="stroke:#181818;stroke-width:1;"/><line style="stroke:#181818;stroke-width:1;" x1="825.6963" x2="825.6963" y1="259.8438" y2="279.8438"/><polygon fill="#181818" points="821.6963,269.8438,825.6963,279.8438,829.6963,269.8438,825.6963,273.8438" style="stroke:#181818;stroke-width:1;"/><line style="stroke:#181818;stroke-width:1;" x1="825.6963" x2="825.6963" y1="327.7813" y2="347.7813"/><polygon fill="#181818" points="821.6963,337.7813,825.6963,347.7813,829.6963,337.7813,825.6963,341.7813" style="stroke:#181818;stroke-width:1;"/><line style="stroke:#181818;stroke-width:1;" x1="825.6963" x2="825.6963" y1="510.0156" y2="530.0156"/><polygon fill="#181818" points="821.6963,520.0156,825.6963,530.0156,829.6963,520.0156,825.6963,524.0156" style="stroke:#181818;stroke-width:1;"/><line style="stroke:#181818;stroke-width:1;" x1="897.5652" x2="920.8857" y1="609.9531" y2="609.9531"/><polygon fill="#181818" points="916.8857,563.9844,920.8857,553.9844,924.8857,563.9844,920.8857,559.9844" style="stroke:#181818;stroke-width:1;"/><line style="stroke:#181818;stroke-width:1;" x1="920.8857" x2="920.8857" y1="498.0156" y2="609.9531"/><line style="stroke:#181818;stroke-width:1;" x1="920.8857" x2="837.6963" y1="498.0156" y2="498.0156"/><polygon fill="#181818" points="847.6963,494.0156,837.6963,498.0156,847.6963,502.0156,843.6963,498.0156" style="stroke:#181818;stroke-width:1;"/><line style="stroke:#181818;stroke-width:1;" x1="825.6963" x2="825.6963" y1="577.9531" y2="597.9531"/><polygon fill="#181818" points="821.6963,587.9531,825.6963,597.9531,829.6963,587.9531,825.6963,591.9531" style="stroke:#181818;stroke-width:1;"/><line style="stroke:#181818;stroke-width:1;" x1="825.6963" x2="825.6963" y1="621.9531" y2="641.9531"/><polygon fill="#181818" points="821.6963,631.9531,825.6963,641.9531,829.6963,631.9531,825.6963,635.9531" style="stroke:#181818;stroke-width:1;"/><line style="stroke:#181818;stroke-width:1;" x1="825.6963" x2="825.6963" y1="689.8906" y2="709.8906"/><polygon fill="#181818" points="821.6963,699.8906,825.6963,709.8906,829.6963,699.8906,825.6963,703.8906" style="stroke:#181818;stroke-width:1;"/><line style="stroke:#181818;stroke-width:1;" x1="825.6963" x2="825.6963" y1="439.7188" y2="486.0156"/><polygon fill="#181818" points="821.6963,476.0156,825.6963,486.0156,829.6963,476.0156,825.6963,480.0156" style="stroke:#181818;stroke-width:1;"/><line style="stroke:#181818;stroke-width:1;" x1="920.5562" x2="954.8857" y1="801.8281" y2="801.8281"/><polygon fill="#181818" points="950.8857,610.7734,954.8857,600.7734,958.8857,610.7734,954.8857,606.7734" style="stroke:#181818;stroke-width:1;"/><line style="stroke:#181818;stroke-width:1;" x1="954.8857" x2="954.8857" y1="427.7188" y2="801.8281"/><line style="stroke:#181818;stroke-width:1;" x1="954.8857" x2="837.6963" y1="427.7188" y2="427.7188"/><polygon fill="#181818" points="847.6963,423.7188,837.6963,427.7188,847.6963,431.7188,843.6963,427.7188" style="stroke:#181818;stroke-width:1;"/><line style="stroke:#181818;stroke-width:1;" x1="825.6963" x2="825.6963" y1="757.8281" y2="789.8281"/><polygon fill="#181818" points="821.6963,779.8281,825.6963,789.8281,829.6963,779.8281,825.6963,783.8281" style="stroke:#181818;stroke-width:1;"/><line style="stroke:#181818;stroke-width:1;" x1="825.6963" x2="825.6963" y1="395.7188" y2="415.7188"/><polygon fill="#181818" points="821.6963,405.7188,825.6963,415.7188,829.6963,405.7188,825.6963,409.7188" style="stroke:#181818;stroke-width:1;"/><line style="stroke:#181818;stroke-width:1;" x1="825.6963" x2="825.6963" y1="813.8281" y2="833.8281"/><polygon fill="#181818" points="821.6963,823.8281,825.6963,833.8281,829.6963,823.8281,825.6963,827.8281" style="stroke:#181818;stroke-width:1;"/><line style="stroke:#181818;stroke-width:1;" x1="825.6963" x2="825.6963" y1="881.7656" y2="901.7656"/><polygon fill="#181818" points="821.6963,891.7656,825.6963,901.7656,829.6963,891.7656,825.6963,895.7656" style="stroke:#181818;stroke-width:1;"/><line style="stroke:#181818;stroke-width:1;" x1="825.6963" x2="825.6963" y1="949.7031" y2="969.7031"/><polygon fill="#181818" points="821.6963,959.7031,825.6963,969.7031,829.6963,959.7031,825.6963,963.7031" style="stroke:#181818;stroke-width:1;"/><line style="stroke:#181818;stroke-width:1;" x1="644.9932" x2="644.9932" y1="1039.1406" y2="1057.6406"/><polygon fill="#181818" points="640.9932,1047.6406,644.9932,1057.6406,648.9932,1047.6406,644.9932,1051.6406" style="stroke:#181818;stroke-width:1;"/><line style="stroke:#181818;stroke-width:1;" x1="792.9639" x2="792.9639" y1="1039.1406" y2="1057.6406"/><polygon fill="#181818" points="788.9639,1047.6406,792.9639,1057.6406,796.9639,1047.6406,792.9639,1051.6406" style="stroke:#181818;stroke-width:1;"/><line style="stroke:#181818;stroke-width:1;" x1="968.667" x2="968.667" y1="1039.1406" y2="1057.6406"/><polygon fill="#181818" points="964.667,1047.6406,968.667,1057.6406,972.667,1047.6406,968.667,1051.6406" style="stroke:#181818;stroke-width:1;"/><line style="stroke:#181818;stroke-width:1;" x1="644.9932" x2="644.9932" y1="1091.6094" y2="1111.6094"/><polygon fill="#181818" points="640.9932,1101.6094,644.9932,1111.6094,648.9932,1101.6094,644.9932,1105.6094" style="stroke:#181818;stroke-width:1;"/><line style="stroke:#181818;stroke-width:1;" x1="792.9639" x2="792.9639" y1="1091.6094" y2="1111.6094"/><polygon fill="#181818" points="788.9639,1101.6094,792.9639,1111.6094,796.9639,1101.6094,792.9639,1105.6094" style="stroke:#181818;stroke-width:1;"/><line style="stroke:#181818;stroke-width:1;" x1="968.667" x2="968.667" y1="1091.6094" y2="1111.6094"/><polygon fill="#181818" points="964.667,1101.6094,968.667,1111.6094,972.667,1101.6094,968.667,1105.6094" style="stroke:#181818;stroke-width:1;"/><line style="stroke:#181818;stroke-width:1;" x1="825.6963" x2="825.6963" y1="1017.6406" y2="1037.6406"/><polygon fill="#181818" points="821.6963,1027.6406,825.6963,1037.6406,829.6963,1027.6406,825.6963,1031.6406" style="stroke:#181818;stroke-width:1;"/><line style="stroke:#181818;stroke-width:1;" x1="825.6963" x2="825.6963" y1="1113.1094" y2="1131.6094"/><polygon fill="#181818" points="821.6963,1121.6094,825.6963,1131.6094,829.6963,1121.6094,825.6963,1125.6094" style="stroke:#181818;stroke-width:1;"/><!--SRC=[bPLBSziW4CVl-XJSqXvaAqxJT9nCBcblFUQkmR1MTWQn190V-VHT9DVnIv7CGTA87t_snJAzoSID-8soyh8M5LZmCe8MYwrGQpDpJMt4gfZStK-A14Qi8KHPkxcO5REVUN6NpuhNsuTvyMDU_9hS5lTCJREC6H-pRWHdC6Q2H_kOyvmgfSCIh7Q4DZwAfoUqhedFpnqiP2NH7YnHP0oeY6I7sSM2DiDKQs2ksTVaqZ3Fjbv16wnnX5krtEGOeGx3w19D19yRQQkny8XGIQj7x4qhy2k4TMbW1IQCIPUDQ1jgGhbVwq4tQenHYgDSaKSbpPUhEIFYeBHsp_Qr5si_EDV0zRfeqEYZkil-R9o74BYiNedC9UJnKwOT0-e1f5TlRErxmyUaH_yO6hs3ng1IFBRP2zKrP-ulMkXqqudAbK6umc3E4Ol5dJNdchlvl9i_aVNWGCOBufMdnWaDaKzhkUPC-d91Uhi7EeNUvVzjy-GkMCH_3-peHCJw3Gs8RvgYyyH54bjkcahx-zSHiEHhQV03TAbnkGGFLi7vjWbhWT6XfHYQSvtqzrWYLN0Ni3EbNkVsCKK8qzGx1fpiIcFVFljgvxE_ZdMoxU90RbdkJEkHJaY-GwuJ_v3UzuYcgHEnqric8MMhmmr56chR9ZLnu5Au1Z_qld-hqpwLBaTo_m00]--></g></svg>